<svg width="610" height="562" viewBox="0 0 610 562" fill="none" xmlns="http://www.w3.org/2000/svg">
<path d="M323.652 26.6868H348.016L359.406 28.6991L370.48 31.7177L380.922 35.7424L390.414 40.2703L399.273 45.3012L406.867 50.3321L420.789 61.4001L425.219 65.4249L432.812 72.9713L438.824 79.5115L445.469 87.561L449.898 93.095L453.379 98.1259L455.91 101.648L459.707 107.182L465.402 116.237L467.617 120.262L470.781 125.796L474.262 132.839L478.059 140.386L482.488 150.448L486.602 160.509L489.766 169.062L493.562 180.13L497.676 194.217L501.789 211.322L504.32 223.899L507.168 242.01L509.066 258.612L510.332 276.221L510.648 283.264V314.456L509.699 332.064L508.75 343.132L508.434 344.641H507.801L509.699 349.169L510.648 354.703V358.728L509.699 365.268L507.168 372.814L504.004 378.851L501.473 382.373L499.258 386.398L498.941 389.919L501.789 394.95L503.055 399.478V406.522L501.789 411.552L499.891 416.08L497.676 419.602L493.246 424.13L485.652 428.155L482.172 430.167L481.539 433.185L482.488 435.701L486.918 440.229L488.816 443.75L489.449 446.266V452.303L487.867 458.34L485.652 462.868L483.121 466.893L478.691 471.42L474.895 474.439L467.617 477.458L464.77 480.476L463.82 482.489L463.504 485.507L464.453 488.023L466.668 492.55L467.617 497.078L467.301 501.103L466.035 505.631L463.82 509.656L461.289 512.674L458.758 514.686L455.277 516.196L457.492 516.699L476.793 518.208L488.184 519.717L494.828 521.227L496.727 522.233V523.239L492.93 524.748L481.223 526.761L463.82 528.27L436.609 529.779L425.852 530.282L385.668 531.288H192.66L155.008 530.282L130.012 529.276L107.23 527.767L91.7266 526.258L82.8672 524.748L80.0195 523.742L79.7031 522.233L80.6523 521.227L87.2969 519.717L99.6367 518.208L110.395 517.202L112.609 516.699L108.812 511.165L104.699 504.625L102.484 500.6L99.3203 495.066L98.6875 492.55H98.0547L95.8398 487.519V486.513H95.207L92.6758 480.476L91.0938 476.451V474.942H90.4609L89.5117 471.924V470.414H88.8789L86.9805 464.377L86.3477 461.359L83.8164 455.825L82.5508 451.297L82.2344 448.781V444.757L83.8164 439.726L86.0312 436.204L88.8789 433.185L89.8281 431.173V428.155L89.5117 426.645L87.9297 425.639L82.8672 423.627L77.4883 421.614L73.0586 418.596L69.5781 414.571L67.0469 410.043L65.7812 404.509L66.0977 398.975L67.6797 393.944L70.2109 390.423L70.5273 389.416V386.398L68.9453 383.882L65.1484 379.858L61.3516 374.324L58.5039 367.783L57.2383 361.243V355.709L58.1875 350.678L60.0859 346.654L62.3008 343.635L66.0977 341.623H69.2617V335.586L70.5273 321.499L72.7422 306.406L74.6406 296.847L75.9062 291.816L77.4883 285.779L80.0195 277.73L82.8672 269.68L86.0312 261.631L92.6758 248.047H93.3086L93.9414 246.035L96.1562 242.01L101.219 234.464L102.801 232.452H103.434V211.322L104.699 197.235L106.914 183.149L109.445 172.08L112.609 161.516L116.09 152.46L118.938 146.423L121.469 141.392L125.266 134.852L129.062 129.318L133.809 123.784L138.555 119.256L143.934 115.231L150.578 111.709L158.805 109.194L161.969 108.691H174.625L183.801 109.697L182.535 110.703L178.422 111.206L179.688 112.212L183.484 114.225L187.598 117.746L191.711 123.784L194.559 129.821L197.09 137.367L198.988 146.423L199.938 153.466L200.254 157.994V341.12H201.203L200.887 343.132L200.57 344.138L200.254 471.924L199.621 478.967L198.672 483.495L196.773 491.041L194.242 497.581L191.395 502.612L188.547 506.637L184.117 510.662L180.004 512.674H179.371V515.693L201.836 515.19L207.531 514.686L211.645 512.674L216.707 508.649L219.555 505.128L221.453 502.612L224.617 495.569L227.148 487.016L228.414 480.476L229.363 470.917L229.996 470.414H254.676L254.043 473.433L250.879 482.992L247.715 490.035L244.234 496.072L241.387 500.6L236.957 505.631L230.945 510.662L224.301 514.183L222.719 514.686L225.883 515.19H321.754L327.449 514.183L332.195 512.171L337.574 508.146L341.371 504.121L345.168 498.587L348.016 493.053L348.332 491.544H348.965L349.598 488.526L350.547 486.01L352.762 475.445L353.711 467.899L354.027 462.868L354.344 330.555L350.23 322.505L346.434 312.946L343.586 305.4L343.902 303.388L345.168 302.885V301.878L347.383 299.866L349.914 295.338L351.496 296.344L355.293 301.375L359.09 305.903V306.909L360.355 307.915L364.152 312.443L364.785 312.946V313.953L366.367 314.959L369.531 317.977L370.164 318.48H373.328L376.809 315.462L379.656 312.443L373.328 302.381L371.113 298.357L366.367 290.81L366.051 288.295L366.367 286.282L364.469 282.761L363.203 283.264L360.039 286.786L354.977 290.307L349.914 291.816H344.535L340.105 290.307L335.992 287.792L331.879 283.767V282.761L330.613 281.755L327.766 276.724L324.918 269.177L323.336 261.631L322.703 257.606V248.047L323.652 242.01L324.918 235.973L326.816 230.439H327.449V228.93L328.715 226.918L330.613 223.396L332.195 222.39V221.384L333.461 220.88V219.874L336.941 216.856L341.371 214.34L342.953 213.837H351.18L354.344 214.843L354.027 157.994L353.078 149.441L351.18 140.386L348.648 132.839L347.699 130.827V129.821H347.066L344.852 125.796L341.688 121.268L337.891 117.243L333.777 114.225L329.664 112.212L324.602 110.703L222.086 110.2L222.719 108.188L223.668 106.678L226.516 101.144L229.996 95.1073L232.211 91.0826L236.957 84.0393L240.438 79.0084L244.867 73.4744L248.98 68.4434L252.777 64.4187L257.84 59.3878L261.004 56.3692L268.598 49.829L276.508 44.295L284.102 39.7672L292.961 35.2393L303.719 31.2146L312.262 28.6991L323.652 26.6868Z" fill="#CFE5CC"/>
<path d="M342.953 213.837H351.18L356.242 215.85L360.672 219.371L363.52 222.893L367.316 228.93L369.848 235.47L371.43 242.513L372.062 247.041L372.379 254.085L371.746 261.631L370.164 269.177L367.949 275.214L367.316 277.227L369.531 280.748L371.746 280.245L374.277 283.264L379.34 291.816L382.504 296.847L384.719 300.872L386.934 304.394L388.516 303.388L392.945 299.363L398.324 294.835L402.438 292.823H403.387V294.332L406.551 294.835L410.98 293.326L411.297 291.816H414.145L417.625 293.326L421.422 296.344L423.953 299.866L426.484 305.4L429.016 313.449L430.598 321.499L431.863 330.052L433.129 338.101L435.344 356.212L437.559 378.348L438.824 393.441V396.963H436.293L436.926 407.025L438.191 433.185L439.141 444.757L441.039 453.309L443.887 463.371L449.898 482.992L454.012 497.078L456.227 502.612L458.125 507.14L457.492 509.152L451.164 515.693L446.102 520.724L442.305 524.748H441.355L441.039 523.742V519.214L442.305 514.686L440.723 514.183L439.141 511.668L437.875 505.631L437.242 497.581L432.496 489.532L423.953 474.439L421.738 470.414L418.258 463.371L415.727 455.322L411.297 438.719L410.98 437.713L405.918 469.911L398.957 513.68L398.324 522.736H377.758L378.074 519.717L380.289 516.699L385.668 512.171L385.352 495.066L384.719 468.905V440.229L386.301 397.466L386.617 390.423L381.871 390.926L381.555 386.398L380.605 381.87L378.074 378.851L377.441 377.845L380.289 374.324L385.035 369.796L385.984 355.709L386.617 348.163V345.647L381.555 348.163L378.707 349.169H370.164L366.684 347.157L363.52 344.138L358.457 337.598L356.242 334.076L353.395 328.542L350.23 322.505L346.434 312.946L343.586 305.4L343.902 303.388L345.168 302.885V301.878L347.383 299.866L349.914 295.338L351.496 296.344L355.293 301.375L359.09 305.903V306.909L360.355 307.915L364.152 312.443L364.785 312.946V313.953L366.367 314.959L369.531 317.977L370.164 318.48H373.328L376.809 315.462L379.656 312.443L373.328 302.381L371.113 298.357L366.367 290.81L366.051 288.295L366.367 286.282L364.469 282.761L363.203 283.264L360.039 286.786L354.977 290.307L349.914 291.816H344.535L340.105 290.307L335.992 287.792L331.879 283.767V282.761L330.613 281.755L327.766 276.724L324.918 269.177L323.336 261.631L322.703 257.606V248.047L323.652 242.01L324.918 235.973L326.816 230.439H327.449V228.93L328.715 226.918L330.613 223.396L332.195 222.39V221.384L333.461 220.88V219.874L336.941 216.856L341.371 214.34L342.953 213.837Z" fill="#42A65F"/>
<path d="M66.0977 341.623H68.9453L72.1094 343.132L75.2734 346.151L78.1211 350.678L80.9688 357.722L82.8672 364.765L84.7656 373.821L86.0312 376.336L88.5625 377.845L90.7773 377.342L92.3594 375.833L93.9414 370.802L96.4727 361.243L98.6875 356.715L100.586 354.703L101.535 354.2H105.016L107.547 356.212L109.445 358.728L111.66 364.262L113.242 370.299L114.508 378.852L114.824 383.379V394.95L114.508 406.019L115.457 410.546L116.723 412.559L119.254 412.056L120.52 411.049L120.836 360.237L122.102 356.212L124 353.697L125.898 352.691H179.371L179.055 355.709L126.531 356.212L124.633 357.722L123.367 360.237V370.299L124.633 373.318L125.898 374.827L179.055 375.33L179.371 389.416V391.429L179.055 482.992L169.879 483.495L168.613 485.507H167.98L168.297 489.532L169.246 492.047L171.461 497.078L173.992 502.109L175.891 505.631L179.055 509.152V520.724H125.582L123.051 517.705L121.469 515.19L117.039 513.68L113.242 511.165L110.395 507.643L108.496 504.122L107.23 499.091V494.563L108.496 489.532L111.344 483.998L111.027 479.47L109.445 476.955L106.914 474.942L99.6367 472.93L94.5742 469.911L90.4609 466.39L86.3477 461.359L83.8164 455.825L82.5508 451.297L82.2344 448.781V444.757L83.8164 439.726L86.0312 436.204L88.8789 433.186L89.8281 431.173V428.155L89.5117 426.645L87.9297 425.639L82.8672 423.627L77.4883 421.614L73.0586 418.596L69.5781 414.571L67.0469 410.043L65.7812 404.509L66.0977 398.975L67.6797 393.944L70.2109 390.423L70.5273 389.416V386.398L68.9453 383.882L65.1484 379.858L61.3516 374.324L58.5039 367.783L57.2383 361.243V355.709L58.1875 350.678L60.0859 346.654L62.3008 343.635L66.0977 341.623Z" fill="#42A75F"/>
<path d="M354.66 331.058L356.242 333.07L358.457 337.095L362.57 342.629L364.785 345.144L368.266 347.66L370.164 348.666H378.707L383.77 346.654L386.934 345.144L386.617 352.188L385.668 363.759L385.352 369.796L378.391 376.839L377.758 377.845L380.922 381.87L382.188 387.907L381.871 390.926L383.453 390.423H386.617V397.466L385.035 440.229V468.905L385.984 507.643V512.171L383.453 514.686L379.34 518.208L378.391 519.717L377.758 522.736H398.324L398.641 513.68L405.602 469.911L410.664 437.713L411.297 437.21L415.094 451.8L417.941 461.862L420.789 467.899L423.953 473.433L426.168 477.458L437.559 497.581L438.191 505.631L439.457 511.668L440.723 513.68L442.305 514.686L441.988 516.699L441.355 519.214V524.748L443.887 522.736L449.898 516.196H454.645L457.492 516.699L476.793 518.208L488.184 519.717L494.828 521.227L496.727 522.233V523.239L492.93 524.748L481.223 526.761L463.82 528.27L436.609 529.779L425.852 530.282L385.668 531.289H192.66L155.008 530.282L130.012 529.276L107.23 527.767L91.7266 526.258L82.8672 524.748L80.0195 523.742L79.7031 522.233L80.6523 521.227L87.2969 519.717L99.6367 518.208L110.395 517.202L112.609 516.699L108.812 511.165L104.699 504.625L102.484 500.6L99.3203 495.066L98.6875 492.55H98.0547L95.8398 487.519V486.513H95.207L92.6758 480.476L91.0938 476.451V474.942H90.4609L89.5117 471.924V470.414H88.8789L86.9805 464.377V462.365L88.2461 463.371L92.6758 467.899L96.7891 470.917L100.902 472.93L106.914 474.439L110.078 476.955L111.344 479.47L111.66 483.998L108.496 490.538L107.547 494.563V499.091L108.812 504.122L111.344 508.649L115.141 512.171L119.254 514.183L121.469 514.686L124 518.711L126.531 520.724L179.371 521.227V515.693L201.836 515.19L207.531 514.686L211.645 512.674L216.707 508.649L219.555 505.128L221.453 502.612L224.617 495.569L227.148 487.016L228.414 480.476L229.363 470.917L229.996 470.414H254.676L254.043 473.433L250.879 482.992L247.715 490.035L244.234 496.072L241.387 500.6L236.957 505.631L230.945 510.662L224.301 514.183L222.719 514.686L225.883 515.19H321.754L327.449 514.183L332.195 512.171L337.574 508.146L341.371 504.122L345.168 498.588L348.016 493.053L348.332 491.544H348.965L349.598 488.526L350.547 486.01L352.762 475.445L353.711 467.899L354.027 462.868L354.344 331.561L354.66 331.058Z" fill="#D5D7D6"/>
<path d="M161.969 108.691H174.625L183.801 109.697L182.535 110.703L178.422 111.206L179.688 112.212L183.484 114.225L187.598 117.746L191.711 123.784L194.559 129.821L197.09 137.367L198.988 146.423L199.938 153.466L200.254 157.994V168.056L196.773 174.093L194.242 177.614L189.18 182.142L182.852 186.167L174.941 189.689L167.031 192.204L136.656 197.738H135.391L135.074 199.247L132.859 193.713L130.328 191.198L129.062 190.695H125.898L122.734 193.21L121.152 196.229L120.203 199.751L119.887 204.781L117.672 204.278L104.383 211.322H103.75V207.297L105.016 195.223L106.914 183.148L109.445 172.08L112.609 161.516L116.09 152.46L118.938 146.423L121.469 141.392L125.266 134.852L129.062 129.318L133.809 123.784L138.555 119.256L143.934 115.231L150.578 111.709L158.805 109.194L161.969 108.691Z" fill="#E2EFDF"/>
<path d="M386.934 390.423L391.996 390.926L402.121 393.441L414.145 395.957L421.105 396.963L436.293 397.466L436.609 399.981L438.191 433.185L439.141 444.757L441.039 453.309L443.887 463.371L449.898 482.992L454.012 497.078L456.227 502.612L458.125 507.14L457.492 509.152L451.164 515.693L446.102 520.724L442.305 524.748H441.355L441.039 523.742V519.214L442.305 514.686L440.723 514.183L439.141 511.668L437.875 505.631L437.242 497.581L432.496 489.532L423.953 474.439L421.738 470.414L418.258 463.371L415.727 455.322L411.297 438.719L410.98 437.713L405.918 469.911L398.957 513.68L398.324 522.736H377.758L378.074 519.717L380.289 516.699L385.668 512.171L385.352 495.066L384.719 468.905V440.229L386.301 397.466L386.617 391.932L386.934 390.423Z" fill="#273742"/>
<path d="M354.66 331.058L356.242 333.07L358.457 337.095L362.57 342.629L364.785 345.144L368.266 347.66L370.164 348.666H378.707L383.77 346.654L386.934 345.144L386.617 352.188L385.668 363.759L385.352 369.796L378.391 376.839L377.758 377.845L380.922 381.87L382.188 387.907L381.871 390.926L383.453 390.423H386.617V397.466L385.035 440.229V468.905L385.984 507.643V512.171L383.453 514.686L380.922 516.699L379.023 515.693L378.074 514.686L373.012 514.183L337.574 513.68L333.777 511.668L335.043 510.159L340.105 505.631L343.586 501.103L347.066 495.066L348.332 491.544H348.965L349.598 488.526L350.547 486.01L352.762 475.445L353.711 467.899L354.027 462.868L354.344 331.561L354.66 331.058Z" fill="#CFE5CC"/>
<path d="M66.0977 341.623H68.9453L72.1094 343.132L75.2734 346.151L78.1211 350.678L80.9688 357.722L82.8672 364.765L84.7656 373.821L86.0312 376.336L88.5625 377.845L90.7773 377.342L92.3594 375.833L93.9414 370.802L96.4727 361.243L98.6875 356.715L100.586 354.703L101.535 354.2H105.016L107.547 356.212L109.445 358.728L111.66 364.262L113.242 370.299L114.508 378.852L114.824 383.379V394.95L114.508 406.019L115.457 410.546L116.723 412.559L119.254 412.056L120.52 411.049L120.836 410.043V452.806L121.152 457.837L120.203 460.856L120.52 463.371H121.152L121.469 514.686H119.254L114.508 512.171L111.027 508.649L108.496 504.122L107.23 499.091V494.563L108.496 489.532L111.344 483.998L111.027 479.47L109.445 476.955L106.914 474.942L99.6367 472.93L94.5742 469.911L90.4609 466.39L86.3477 461.359L83.8164 455.825L82.5508 451.297L82.2344 448.781V444.757L83.8164 439.726L86.0312 436.204L88.8789 433.186L89.8281 431.173V428.155L89.5117 426.645L87.9297 425.639L82.8672 423.627L77.4883 421.614L73.0586 418.596L69.5781 414.571L67.0469 410.043L65.7812 404.509L66.0977 398.975L67.6797 393.944L70.2109 390.423L70.5273 389.416V386.398L68.9453 383.882L65.1484 379.858L61.3516 374.324L58.5039 367.783L57.2383 361.243V355.709L58.1875 350.678L60.0859 346.654L62.3008 343.635L66.0977 341.623Z" fill="#5DB471"/>
<path d="M499.891 341.12H502.738L506.219 343.132L508.75 346.654L510.016 350.678L510.648 354.703V358.728L509.699 365.268L507.168 372.814L504.004 378.851L501.473 382.373L499.258 386.398L498.941 389.919L501.789 394.95L503.055 399.478V406.522L501.789 411.552L499.891 416.08L497.676 419.602L493.246 424.13L485.652 428.155L482.172 430.167L481.539 433.185L482.488 435.701L486.918 440.229L488.816 443.75L489.449 446.266V452.303L487.867 458.34L485.652 462.868L483.121 466.893L478.691 471.42L474.895 474.439L467.617 477.458L464.77 480.476L463.82 482.488L463.504 485.507L464.453 488.023L466.668 492.55L467.617 497.078L467.301 501.103L466.035 505.631L463.82 509.655L461.289 512.674L458.758 514.686L455.277 516.196H450.531L452.113 514.183L457.809 508.146L457.176 505.631L454.645 499.594L452.113 491.544L446.734 473.936L443.887 463.874V454.315L443.254 444.757V431.676L444.203 423.627L445.785 418.596L447.367 415.577L449.898 413.565L452.746 414.571L454.961 417.59L457.809 423.627L460.023 424.13L461.289 420.105V414.571L460.023 401.994L459.707 397.466V384.889L460.656 375.833L462.555 368.287L465.402 363.256L467.617 361.243H471.098L473.629 363.759L475.844 368.79L477.742 375.833L479.324 383.379L480.273 385.392L482.172 384.889L483.754 382.373L485.02 379.355L487.867 361.746L490.398 353.194L493.246 347.157L495.461 344.138L498.625 341.623L499.891 341.12Z" fill="#5DB471"/>
<path d="M130.328 438.216H133.492L133.809 438.72V448.781L142.668 449.284L143.617 452.806L146.148 466.39L147.414 468.402L148.68 467.899L151.844 463.371L155.641 460.352H157.855L160.387 462.365L161.969 465.383L162.918 468.905L163.234 471.924L163.551 484.501L164.5 489.532L167.348 494.563L169.246 497.078L171.461 497.581L174.309 502.612L175.891 505.631L179.055 509.152V520.724H125.582L123.051 517.705L121.469 515.19L121.152 513.177L120.836 465.383L121.152 463.371H120.52L119.887 460.352L120.836 457.837V450.291L124.316 443.75L127.48 439.726L130.328 438.216Z" fill="#258548"/>
<path d="M386.934 390.423L391.996 390.926L402.121 393.441L414.145 395.957L421.105 396.963L436.293 397.466L436.609 399.981V407.025L433.762 405.012L430.281 403.503L421.738 401.994L413.512 400.484L405.602 397.969L400.855 395.454L400.223 394.95L406.234 418.093L410.348 433.689L410.98 436.204L410.348 441.738L405.285 473.936L398.957 513.68L398.324 522.736H377.758L378.074 519.717L380.289 516.699L385.668 512.171L385.352 495.066L384.719 468.905V440.229L386.301 397.466L386.617 391.932L386.934 390.423Z" fill="#1A2830"/>
<path d="M344.219 222.39H350.863L354.977 224.402L358.457 227.421L361.621 231.949L363.52 235.47L366.051 243.52L366.684 247.544V258.109L365.418 264.65L363.836 269.68L360.988 274.711L358.457 278.233L354.66 281.252L351.496 282.761L349.281 283.264H345.484L341.055 281.755L336.625 278.233L333.461 273.705L331.562 270.184L329.031 262.134L328.082 254.588L328.398 246.538L329.664 240.501L331.562 234.967L334.41 229.936L337.574 226.415L340.738 223.899L344.219 222.39Z" fill="#E1EFEB"/>
<path d="M173.359 111.206L178.422 111.709L183.484 114.225L187.598 117.747L191.711 123.784L194.559 129.821L197.09 137.367L198.988 146.423L199.938 153.466L200.254 158.497L199.938 159H181.27L150.578 158.497L150.895 150.448L152.16 141.895L153.742 135.355L156.273 127.808L159.754 121.268L163.234 116.74L167.664 113.219L171.145 111.709L173.359 111.206Z" fill="#9BA8A4"/>
<path d="M410.98 437.21L411.613 438.719L417.309 459.849L419.523 465.383L423.004 471.924L426.484 477.961L428.699 481.985L432.18 488.023L434.395 492.047L437.559 497.581L438.191 505.631L439.457 511.668L441.355 514.686L440.09 515.693H431.863L418.891 515.19L399.273 514.686L398.957 516.196H398.641L398.957 511.668L405.602 469.911L410.664 437.713L410.98 437.21Z" fill="#CFE5CB"/>
<path d="M147.414 400.988H166.398L166.715 403V422.621L166.398 449.788H153.742L152.16 448.781L151.527 448.278L134.125 448.781V401.491L147.414 400.988Z" fill="#5EB472"/>
<path d="M342.953 213.837H351.18L356.242 215.85L360.672 219.371L363.52 222.893L367.316 228.93L369.848 235.47L371.43 242.513L372.062 247.041L372.379 254.085L371.746 261.631L370.164 269.177L367.949 275.214L367.316 277.227L369.531 280.748L371.746 280.245L374.277 283.264L379.34 291.816L382.504 296.847L384.719 300.872L387.25 304.897V305.903L383.453 309.425L380.605 312.443L379.34 311.94L373.328 302.381L371.113 298.357L366.367 290.81L366.051 288.295L366.367 286.282L364.469 282.761L363.203 283.264L360.039 286.786L354.977 290.307L349.914 291.816H344.535L340.105 290.307L335.992 287.792L331.879 283.767V282.761L330.613 281.755L327.766 276.724L324.918 269.177L323.336 261.631L322.703 257.606V248.047L323.652 242.01L324.918 235.973L326.816 230.439H327.449V228.93L328.715 226.918L330.613 223.396L332.195 222.39V221.384L333.461 220.88V219.874L336.941 216.856L341.371 214.34L342.953 213.837ZM344.219 222.39L339.156 224.905L335.676 228.427L332.828 232.452L330.613 237.483L329.031 243.017L328.398 246.538L328.082 254.588L329.031 262.134L331.562 270.184L334.41 275.214L336.625 278.233L341.055 281.755L345.484 283.264H349.281L353.711 281.755L356.875 279.742L360.355 275.718L363.203 271.19L365.102 266.159L366.367 260.625L366.684 258.109V247.544L365.418 241.004L363.52 235.47L360.672 230.439L358.457 227.421L353.395 223.396L350.863 222.39H344.219Z" fill="#273843"/>
<path d="M432.812 139.38H436.926L440.723 140.889L444.52 143.907L446.734 146.926L449.582 153.466L450.848 159.503L451.164 166.547L450.531 171.577L448.949 177.615L446.734 182.142L444.52 185.664L442.938 190.695L441.988 195.726L440.406 197.235H433.129L428.066 196.732L427.117 192.707L425.535 186.67L421.738 179.627L419.84 174.596L418.891 170.068L418.574 166.547V162.019L419.523 155.982L421.105 150.951L423.953 145.92L426.801 142.398L430.914 139.883L432.812 139.38Z" fill="#FBBD44"/>
<path d="M125.582 356.212H177.789V361.746H139.504L177.789 362.249V365.268H137.605V366.274H177.789V369.293L137.922 369.796H177.473L177.789 370.299V374.827H125.582L123.684 372.311L123.051 370.299V360.237L124.949 356.715L125.582 356.212Z" fill="#FDFDFD"/>
<path d="M229.68 470.414H254.676L254.043 473.433L250.879 482.992L247.715 490.035L244.234 496.072L241.387 500.6L236.957 505.631L230.945 510.662L224.301 514.183L220.504 515.19L217.023 515.693H205.949V515.19L211.012 513.177L216.391 509.152L219.555 505.128L221.453 502.612L224.617 495.569L227.148 487.016L228.414 480.476L229.363 470.917L229.68 470.414Z" fill="#9BA8A4"/>
<path d="M125.898 190.192H129.062L131.594 191.701L133.492 194.217L135.074 198.744L135.391 204.781L144.25 210.315L153.742 216.353L154.059 217.359L153.742 218.365L152.16 217.862L143.301 212.328L135.391 207.297H134.758L132.859 211.322L130.961 213.334L129.062 214.34L129.379 219.874L130.645 231.445L131.91 232.452L132.543 234.464V236.979L131.277 238.992L129.695 239.495L127.48 238.992L114.824 248.55L110.711 251.569L109.762 255.091L108.18 256.097L103.434 285.276L106.281 288.295L108.18 292.32L108.496 293.829V299.866L106.914 304.897L104.383 307.915L102.168 308.922H99.9531L97.1055 307.412L95.207 304.897L93.625 299.866V294.332L94.5742 290.307L96.7891 286.786L99.0039 285.276L101.852 284.773L106.281 257.606V255.091L105.332 252.575L105.648 249.557L106.914 248.047H109.129L109.762 249.054L111.344 248.55L123.051 239.495L127.48 236.476L127.797 233.458L129.062 230.942L127.48 217.359V214.34L124.949 213.837L122.102 210.819L120.836 208.806L119.887 205.285V199.751L121.469 194.72L123.684 191.701L125.898 190.192Z" fill="#283943"/>
<path d="M179.055 398.975H179.371V481.985H198.672L198.039 486.513L195.508 494.563L192.977 500.097L189.812 505.128L185.383 509.656L181.27 512.171L179.371 512.674V521.227H126.531V520.724H179.055V509.152L177.473 508.146L174.309 503.618L171.145 497.078L168.613 491.544L167.664 487.016L167.98 485.507L169.879 482.992H179.055V398.975Z" fill="#9AA8A3"/>
<path d="M395.477 392.435H398.008L406.234 394.447L414.145 395.957L421.105 396.963L436.293 397.466L436.609 399.981V407.025L433.762 405.012L430.281 403.503L421.738 401.994L413.512 400.484L405.602 397.969L400.855 395.453L400.223 394.95L406.234 418.093L410.348 433.689L410.98 436.204L410.348 441.738L405.918 469.911L405.602 470.917H404.969L404.02 457.837L401.172 431.676L397.375 403L395.477 392.435Z" fill="#0D181E"/>
<path d="M363.52 282.258L364.785 282.761L366.684 286.786L366.367 289.804L368.582 293.829L373.328 301.375L375.543 305.4L379.973 312.443L379.023 313.953L376.809 315.965L373.328 318.983H370.164L366.684 315.965L364.785 313.953V312.946L363.203 311.94L359.09 306.909V305.903L357.824 304.897L353.395 299.363L350.547 295.841H349.914L347.699 299.866L346.117 301.878H345.168V302.884L343.902 303.388L342.32 301.375L340.738 298.86L338.84 294.835L338.207 292.32V289.301L341.055 290.307L344.535 291.313H349.914L354.977 289.804L360.039 286.282L363.203 282.761L363.52 282.258Z" fill="#CFE5CB"/>
<path d="M151.211 497.581H171.461L174.309 502.612L175.891 505.631L179.055 509.152V520.724H163.234L162.285 519.214L160.07 517.705L159.754 516.196L158.172 514.183L155.324 511.165L154.059 509.656L152.477 507.14L151.211 504.122V500.097L152.16 498.587L151.211 497.581Z" fill="#1C7641"/>
<path d="M86.9805 462.365L88.2461 463.371L92.6758 467.899L96.7891 470.917L100.902 472.93L106.914 474.439L110.078 476.955L111.344 479.47L111.66 483.998L108.496 490.538L107.547 494.563V499.091L108.812 504.122L111.344 508.649L115.141 512.171L119.254 514.183L121.469 514.686L123.051 517.705H122.102L120.836 516.196L118.305 517.202L110.395 517.705V517.202L112.609 516.699L108.812 511.165L104.699 504.625L102.484 500.6L99.3203 495.066L98.6875 492.55H98.0547L95.8398 487.519V486.513H95.207L92.6758 480.476L91.0938 476.451V474.942H90.4609L89.5117 471.924V470.414H88.8789L86.9805 464.377V462.365Z" fill="#D0E6CC"/>
<path d="M392.312 251.066H395.16L399.59 253.582H402.121L407.5 251.569L409.715 252.072L411.297 254.588L411.93 256.6L415.094 259.116L416.359 262.134L416.676 264.146V269.68L415.41 276.221L413.512 281.755L410.98 285.276L409.715 284.773L409.082 281.755V278.233L410.98 276.221L411.297 272.699L410.98 271.19L409.082 270.184L407.816 271.693L406.551 270.687L404.969 268.674H401.488L397.059 269.177L393.895 268.171L391.363 265.656L390.098 263.14L389.465 260.625V257.103L390.414 253.582L392.312 251.066Z" fill="#273842"/>
<path d="M354.344 224.905L356.242 225.408L359.723 228.93L362.887 233.961L365.418 241.004L366.684 247.544V258.109L365.418 264.649L363.836 269.68L360.988 274.711L358.457 278.233L356.242 280.245L354.66 279.742V234.464L356.242 234.967L358.773 238.489L360.988 243.52L362.254 249.557L362.57 253.581L363.836 253.078V248.047L362.254 241.507L360.039 236.476L357.508 232.955L354.344 229.936V224.905Z" fill="#E1EEDF"/>
<path d="M157.855 233.458L158.805 233.961L158.488 237.483L153.742 259.115L153.426 261.631L154.059 263.14V266.159L153.742 268.171L156.906 276.221L160.703 285.779L164.184 294.332H169.246L172.094 296.847L173.992 300.872L174.625 304.897L174.309 309.425L173.043 313.449L170.828 316.468L167.98 317.977L164.5 317.474L161.969 314.959L160.387 311.94L159.438 308.419V303.891L160.387 299.866L161.969 296.847L162.602 296.344L162.285 294.332L159.121 286.282L155.324 276.724L152.16 268.674L149.945 267.165L149.312 265.153L149.629 262.637L150.578 261.128L151.844 260.122L157.223 235.47L157.855 233.458Z" fill="#273842"/>
<path d="M159.438 210.316H161.652L165.133 212.328L167.348 216.353L168.297 219.371V224.905L167.98 226.918L175.258 233.458L176.523 233.961L178.105 233.458L179.688 235.973L188.547 234.464L188.863 232.452L189.812 230.942H191.711L193.293 233.458L192.977 236.979L192.027 238.992L189.496 238.489L188.863 236.979L180.32 238.489L178.422 239.998L176.523 239.495L175.574 236.979L173.992 234.967L167.664 229.433L166.715 229.936L165.449 232.452L162.602 234.464H159.121L156.273 232.955L154.059 228.93L153.109 225.408V219.371L154.691 214.34L157.223 211.322L159.438 210.316Z" fill="#FCBE44"/>
<path d="M125.898 190.192H129.062L131.594 191.701L133.492 194.217L135.074 198.744L135.391 204.781L144.25 210.315L153.742 216.353L154.059 217.359L153.742 218.365L152.16 217.862L143.301 212.328L135.391 207.297H134.758L132.859 211.322L130.961 213.334L129.062 214.34H125.898L122.734 211.825L120.836 208.806L119.887 205.285V199.751L121.469 194.72L123.684 191.701L125.898 190.192Z" fill="#44A760"/>
<path d="M423.004 327.536H423.32V332.064L422.055 357.218L421.105 363.256L419.523 369.293L417.309 374.827L414.777 379.858L411.297 385.392L406.867 389.416L401.488 392.435L401.172 393.441L398.008 392.938L391.996 391.429L386.934 390.423L386.617 391.932V389.919L392.312 387.404L401.805 383.379L406.234 380.361L409.715 376.839L413.195 371.305L416.043 363.759L418.258 356.212L420.789 344.138L422.371 333.573L423.004 327.536Z" fill="#258648"/>
<path d="M401.488 268.171H404.969L407.184 271.19L408.449 270.184L409.715 269.68L411.297 271.19L411.613 274.711L410.664 277.227L409.398 278.233V281.755L410.348 285.779L410.98 288.295V293.326L408.449 294.835L405.602 295.338L403.387 294.332L402.754 291.313L399.59 289.301L398.008 286.282L397.059 281.252L396.426 273.202V270.184L398.641 268.674L401.488 268.171Z" fill="#FABD46"/>
<path d="M428.066 165.037L429.332 165.54L430.281 170.068V171.577H432.18V168.056L433.129 165.54L433.762 165.037H435.977L436.926 168.056L436.609 171.577L438.824 172.081L439.141 167.05L440.406 165.037H442.305L443.254 167.05L442.938 169.565L440.406 174.596L438.824 183.652L438.191 190.192L437.875 196.732L436.609 197.235H433.129L431.863 196.732L431.23 187.173L429.648 177.111L428.383 172.584V171.577H429.332L428.699 166.547L427.434 167.553L426.801 168.559L427.117 166.043L428.066 165.037Z" fill="#FABD45"/>
<path d="M454.012 499.594L455.277 500.097L458.125 507.14L457.492 509.152L451.164 515.693L446.102 520.724L442.305 524.748H441.355L441.039 523.742V519.214L443.887 509.655H444.52V508.649L451.164 502.612L454.012 499.594Z" fill="#0E1A1F"/>
<path d="M385.668 512.171L392.629 513.177L398.008 513.68L398.641 512.171V519.214L398.324 522.736H377.758L378.074 519.717L380.289 516.699L385.668 512.171Z" fill="#0D181E"/>
<path d="M384.719 180.633H387.25L389.148 182.645L390.414 185.664L390.73 189.689L394.527 195.223L398.008 199.751L399.273 201.763V204.278L398.008 206.291L396.742 205.788L393.895 202.266L390.73 197.738L388.516 194.72H384.719L382.82 192.707L381.555 189.689V185.161L383.453 181.639L384.719 180.633Z" fill="#FEFEFE"/>
<path d="M77.4883 421.614L81.2852 422.621L86.9805 424.633L89.5117 426.645L90.1445 428.155V431.173L88.2461 434.695L85.3984 437.713L83.5 441.235L82.5508 444.757L81.6016 444.254L78.4375 429.161L77.8047 424.633L77.4883 424.13V421.614Z" fill="#D0E6CC"/>
<path d="M394.527 301.878L394.844 302.884L392.629 309.928L390.098 322.002L388.199 335.585L387.25 344.641H386.617V345.647L381.555 348.163H379.023L379.656 345.647L382.504 338.604L385.352 328.542L387.883 318.983L390.73 310.431L394.211 302.381L394.527 301.878Z" fill="#1E7942"/>
<path d="M423.004 327.536H423.32V332.064L422.055 357.218L421.105 363.256L419.523 369.293L417.309 374.827L415.727 377.342L412.562 378.348L411.93 377.845L411.297 374.324L413.828 369.796L416.676 361.746L418.574 354.703L420.789 344.138L422.371 333.573L423.004 327.536Z" fill="#248547"/>
<path d="M500.523 364.765L501.156 365.771L497.359 372.311L493.879 379.355L490.082 386.398L485.336 396.46L482.172 403L478.059 412.056L471.098 428.658L467.301 438.216L463.504 448.781L459.074 461.862L454.961 474.942L451.797 486.513L450.848 487.016L451.797 481.985L457.176 464.377L456.859 460.352L453.379 440.229V438.216H454.012L457.492 457.837L457.809 461.359H458.441L459.074 458.34L463.504 445.26L468.883 431.173L472.996 421.111L472.68 415.577L468.883 383.882V381.87H469.516L471.098 393.944L473.629 415.074L474.262 418.093L478.059 409.54L482.172 400.484L486.285 391.932L490.398 383.882L493.879 376.839L497.992 369.293L500.523 364.765Z" fill="#EDF5ED"/>
<path d="M68.6289 362.753L69.8945 363.759L75.2734 371.808L81.2852 381.367L83.5 385.392L86.0312 389.416L88.2461 393.441L91.7266 399.478L94.5742 405.012L98.3711 412.056L98.6875 411.049L100.27 379.355L100.586 377.342H101.219V381.87L99.6367 412.559L99.9531 415.074L102.801 421.111L106.914 429.664L111.027 438.72L116.09 450.794L118.938 457.837V458.843L119.887 458.34L120.203 457.334H120.836L120.203 460.856L120.836 463.371L120.52 464.88L117.672 457.837L115.773 456.831L100.902 452.303L93.9414 450.291L93.625 448.781L102.168 451.297L115.773 455.322H116.723L112.926 445.763L109.762 438.72L105.965 430.167L99.0039 416.08L96.1562 410.546L92.6758 404.006L89.8281 398.472L85.3984 390.926L83.1836 386.901L78.1211 378.348L70.5273 366.274L68.6289 363.759V362.753Z" fill="#EEF6EE"/>
<path d="M339.156 52.3445H341.055L342.004 53.3507L342.32 59.3878H346.434L346.75 59.8909V65.4249L342.004 65.928V69.4496L341.371 70.4558H337.891L337.258 69.4496L336.941 65.928L333.145 65.4249L332.828 64.9218V60.8971L333.777 59.3878L337.574 58.8847V53.3507L339.156 52.3445Z" fill="#FEFEFE"/>
<path d="M477.109 472.427L477.426 473.936L474.262 480.476L470.465 488.526L467.934 494.06L467.617 497.078H467.301L466.352 492.55L463.504 487.016L463.188 484.501L464.137 480.979L466.352 477.961L468.566 476.451L474.895 473.936L477.109 472.427Z" fill="#D0E6CC"/>
<path d="M125.898 352.691H179.371L179.055 355.709H167.664L127.164 355.206V354.703L132.543 354.2L125.898 353.697V352.691Z" fill="#319051"/>
<path d="M494.512 422.62L494.828 424.13L492.297 432.682L489.766 440.732L488.816 442.744L487.551 441.738L485.02 438.719L482.172 435.701L481.223 433.185L481.855 430.167L484.387 428.155L492.613 424.13L494.512 422.62Z" fill="#D0E6CC"/>
<path d="M373.328 378.348H378.074L380.922 381.87L381.871 386.398L381.555 390.423L378.391 392.938L375.543 394.447L372.695 393.944L370.797 391.429V387.907L372.062 385.392L373.961 383.379L373.645 381.367L373.328 380.864V378.348Z" fill="#FABE47"/>
<path d="M428.066 165.037L429.332 165.54L430.281 170.068V171.577H432.18V168.056L433.129 165.54L433.762 165.037H435.977L436.926 168.056L436.609 171.577L438.824 172.081L439.141 167.05L440.406 165.037H442.305L443.254 167.05L442.938 169.565L440.406 174.596L438.824 183.652L438.191 190.192L437.875 196.732H436.926V191.198L437.875 182.142L439.141 173.59L437.559 174.093L435.344 173.087L434.395 174.093H430.281L431.863 183.149L432.812 192.707V196.732H431.863L431.23 187.173L429.648 177.111L428.383 172.584V171.577H429.332L428.699 166.547L427.434 167.553L426.801 168.559L427.117 166.043L428.066 165.037Z" fill="#2C434A"/>
<path d="M157.855 233.458L158.805 233.961L158.488 237.483L153.742 259.115L153.426 261.631L154.059 263.14V266.159L153.742 268.171L156.906 276.221L160.703 285.779L163.551 292.823L163.234 293.829L161.336 289.301L160.07 288.798L156.273 279.239L152.16 268.674L149.945 267.165L149.312 265.153L149.629 262.637L150.578 261.128L151.844 260.122L157.223 235.47L157.855 233.458Z" fill="#283B44"/>
<path d="M404.336 311.437L404.652 312.946L402.754 320.493L400.539 335.082L398.008 355.709L397.059 358.728L393.895 362.249L385.984 369.293H385.352L385.984 366.777L393.578 358.728L395.16 354.703L398.324 338.101L400.855 325.021L403.387 314.456L404.336 311.437Z" fill="#258648"/>
<path d="M167.348 227.421L168.93 227.924L175.891 233.961L178.105 233.458L179.688 235.973L188.547 234.464L188.863 232.452L189.812 230.942H191.711L193.293 233.458L192.977 236.979L192.027 238.992L189.496 238.489L188.863 236.979L180.32 238.489L178.422 239.998L176.523 239.495L175.574 236.979L173.992 234.967L167.031 228.93L167.348 227.421Z" fill="#283B45"/>
<path d="M350.23 228.427L353.395 228.93L356.559 231.445L359.406 234.967L361.621 238.992L363.836 246.035L364.152 248.047V253.078L362.57 253.582L361.305 246.035L359.723 241.004L356.875 235.973L353.078 232.955L350.23 231.445L349.914 228.93L350.23 228.427Z" fill="#FEFEFE"/>
<path d="M137.605 423.124H162.602L162.918 425.639H137.289L137.605 423.124Z" fill="#F2F7F1"/>
<path d="M137.605 430.67H162.918L162.602 433.186H137.605L137.289 431.173L137.605 430.67Z" fill="#EEF6EF"/>
<path d="M439.457 207.297L441.355 207.8L441.672 209.812L440.723 211.322H438.824L437.242 213.334L436.609 213.837H432.812L431.23 212.328L430.914 211.322L428.383 210.819L428.066 208.303L428.383 207.8L439.457 207.297Z" fill="#273943"/>
<path d="M410.98 374.827H411.613V376.336L412.246 376.839L411.93 377.845L414.145 377.342L415.727 376.839L415.41 378.852L411.297 385.392L408.133 388.41L407.184 387.907L407.5 385.895V382.876H406.234V381.87L405.285 381.367L409.715 376.839L410.98 374.827Z" fill="#1C7741"/>
<path d="M137.289 177.111L139.188 177.615L141.086 180.13V184.658L139.504 187.676L138.871 188.179H136.656L134.758 186.167L134.125 183.652L134.441 180.633L135.707 178.118L137.289 177.111Z" fill="#FEFEFE"/>
<path d="M427.75 198.241H441.988L442.305 200.757L441.355 202.266H428.066L427.117 201.26L427.434 198.744L427.75 198.241Z" fill="#283B44"/>
<path d="M137.289 416.08H162.918L162.602 418.596H137.922L137.289 418.093V416.08Z" fill="#F7FAF7"/>
<path d="M428.066 202.769H441.988L442.305 205.788L441.355 206.794H428.066L427.117 205.285L428.066 202.769Z" fill="#293C45"/>
<path d="M212.56 176.363H344.516V178.051H212.56V176.363Z" fill="#1A2D31"/>
<path d="M212.56 176.363H344.516V178.051H212.56V176.363Z" fill="#1A2D31"/>
<path d="M212.56 261.592H323.309V263.279H212.56V261.592Z" fill="#1A2D31"/>
<path d="M394.844 386.398H396.742L397.059 387.907L398.957 388.41L401.805 389.416L402.754 390.423L402.438 391.932L401.172 392.938L399.906 393.441L391.996 391.429L386.934 390.423L386.617 391.932V389.919L392.312 387.404L394.844 386.398Z" fill="#1D7542"/>
<path d="M394.527 301.878L394.844 302.884L392.629 309.928L390.098 322.002L388.832 330.555L388.516 329.548L386.617 330.051L385.984 329.548L385.668 327.033L388.199 317.977L390.73 310.431L394.211 302.381L394.527 301.878Z" fill="#258648"/>
<path d="M338.207 289.301L341.055 290.307L345.801 291.816L346.117 294.835L345.168 297.351V298.357L343.902 298.86V300.369L342.32 300.872L340.422 298.357L338.523 293.829L338.207 289.301Z" fill="#F8BD47"/>
<path d="M370.797 267.668L371.113 269.177L370.164 273.202L369.215 275.214V278.736L373.012 279.742L375.543 283.264L379.34 290.307L384.402 296.344L386.934 302.885L389.465 302.381L388.199 304.394L386.934 304.897L382.504 297.854L380.289 293.829L376.176 287.289L373.961 283.264L371.746 280.748L369.531 281.252L367 277.227L368.898 271.693L370.797 267.668Z" fill="#D8E6D7"/>
<path d="M437.559 498.084L437.875 499.091L439.141 500.097L441.355 504.121L444.203 508.649L443.57 511.668L442.621 514.686L440.723 514.183L439.141 511.668L437.875 505.631L437.559 502.612V498.084Z" fill="#5DB371"/>
<path d="M95.5234 321.499H98.6875L99.9531 323.008L100.27 324.517V329.045H99.6367L99.0039 331.058L98.3711 331.561H95.8398L94.2578 329.548L93.9414 328.542V324.517L95.5234 321.499Z" fill="#FDFDFD"/>
<path d="M363.52 282.258L364.785 282.761L366.684 286.786L366.367 289.804L368.582 293.829L370.797 297.35L370.48 298.357L367.316 293.326L364.152 290.81L361.621 289.301L355.609 290.307L356.559 288.798L361.621 284.773L363.52 282.258Z" fill="#DCE9DA"/>
<path d="M504.32 377.845H504.637L504.32 381.87L502.422 392.435L501.789 394.95L500.207 392.938L498.625 389.92L498.941 386.398L501.156 382.373L503.371 378.852L504.32 377.845Z" fill="#E0EEDE"/>
<path d="M137.605 438.216H156.273L155.957 440.732H137.605L137.289 438.72L137.605 438.216Z" fill="#EEF6EE"/>
<path d="M500.523 364.765L501.156 365.771L497.359 372.311L493.879 379.355L490.082 386.398L485.336 396.46L482.172 403L478.059 412.056L475.211 418.596L474.578 417.59L478.691 408.031L483.121 398.472L486.285 391.932L490.398 383.882L493.879 376.839L497.992 369.293L500.523 364.765Z" fill="#ECF5EE"/>
<path d="M430.598 239.998L432.496 240.501L433.762 242.513V247.041L432.496 249.557L429.965 250.06L428.066 247.544L427.75 244.023L428.699 241.507L430.598 239.998Z" fill="#FEFEFE"/>
<path d="M453.379 438.216H454.012L457.492 457.837L457.809 461.359H458.441L459.074 458.34L461.605 450.794L462.238 452.303L456.859 468.905L453.062 481.482L451.797 486.513L450.848 487.016L451.797 481.985L457.176 464.377L456.859 460.352L453.379 440.229V438.216Z" fill="#E9F3EA"/>
<path d="M68.6289 362.753L69.8945 363.759L75.2734 371.808L81.2852 381.367L83.5 385.392L86.0312 389.416L88.2461 393.441L91.7266 399.478L94.5742 405.012L97.7383 411.049L97.1055 412.056L94.2578 407.025L91.4102 401.491L82.8672 386.398L78.1211 378.348L70.5273 366.274L68.6289 363.759V362.753Z" fill="#EDF5EE"/>
<path d="M121.785 355.709L122.102 356.715L121.152 360.237L120.836 410.043L119.254 412.559L116.723 413.062L115.141 410.546L114.508 408.534V404.509H114.824L115.773 409.037L117.355 411.552L118.938 411.049L119.887 409.037L120.203 361.243L121.469 356.212L121.785 355.709Z" fill="#DAEBD7"/>
<path d="M345.801 291.817H349.281L349.914 294.332V295.841L347.699 299.866L346.117 301.878H345.168V302.885L343.902 303.388L342.32 300.872L343.902 300.369V298.86L345.168 298.357L344.852 296.847L345.801 294.835L346.117 292.823L345.484 292.32L345.801 291.817Z" fill="#FABE47"/>
<path d="M135.074 204.781L139.504 207.297L153.742 216.353L154.059 217.359L153.742 218.365L152.16 217.862L143.301 212.328L134.758 206.794L135.074 204.781Z" fill="#1F3138"/>
<path d="M442.305 148.435L443.887 148.938L446.102 152.46L447.684 157.491L448.316 161.012V167.05L448 168.056L446.418 167.553L446.102 160.006L444.836 155.478L442.621 150.951L441.988 149.441L442.305 148.435Z" fill="#FBBD44"/>
<path d="M404.336 311.437L404.652 312.946L402.754 320.493L400.539 335.082L398.957 347.66H398.008L399.273 337.598L397.375 348.163L396.426 351.685L396.109 350.175L399.906 329.548L402.438 317.977L404.336 311.437Z" fill="#1E7A42"/>
<path d="M134.758 206.794L137.922 208.303V209.309L136.34 209.812L135.391 212.328L133.492 214.843L130.328 216.856L129.695 220.377L129.062 219.874L128.746 214.34L132.543 211.322L134.758 206.794Z" fill="#DEEBDB"/>
<path d="M94.2578 291.313H95.8398L96.4727 292.823L96.7891 299.866L97.4219 301.878V304.394L98.0547 305.4L96.7891 305.903L95.207 303.388L94.2578 299.363L93.625 299.866V294.332L94.2578 291.313Z" fill="#325355"/>
<path d="M93.625 448.781L102.168 451.297L117.355 455.825L117.988 455.322L118.938 457.837V458.843L119.887 458.34L120.203 457.334H120.836L120.203 460.856L120.836 463.371L120.52 464.88L117.672 457.837L115.773 456.831L100.902 452.303L93.9414 450.291L93.625 448.781Z" fill="#E2EFE5"/>
<path d="M428.066 165.037L429.332 165.54L430.281 170.068L430.598 172.081L431.23 173.087H429.965L431.547 180.633L432.496 188.179L432.812 196.732H431.863L431.23 187.173L429.648 177.111L428.383 172.584V171.577H429.332L428.699 166.547L427.434 167.553L426.801 168.559L427.117 166.043L428.066 165.037Z" fill="#2B4249"/>
<path d="M351.496 71.462H354.027L355.293 73.4744V76.493L354.027 79.0084H351.496L350.547 77.4991L350.23 74.4806L351.18 71.9651L351.496 71.462Z" fill="#FEFEFE"/>
<path d="M352.129 290.81H354.66V300.369L353.395 299.363L349.914 294.835L348.965 292.32L349.914 291.313L352.129 290.81Z" fill="#F7F9F8"/>
<path d="M216.074 130.827H218.605L219.871 133.342L219.555 136.361L218.289 138.373H216.074L214.809 135.858V132.839L216.074 130.827Z" fill="#2A3B45"/>
<path d="M240.121 130.827H242.336L243.602 132.839V136.361L242.336 138.373L241.07 138.876L239.805 138.373L238.855 135.858V132.839L240.121 130.827Z" fill="#2B3D46"/>
<path d="M232.211 130.827H234.426L235.691 132.839V136.361L234.426 138.373H231.895L230.945 135.858V132.839L232.211 130.827Z" fill="#345054"/>
<path d="M248.031 130.827H250.562L251.512 132.336V136.361L250.246 138.373H248.031L246.766 135.858V132.839L248.031 130.827Z" fill="#2A3C45"/>
<path d="M224.301 130.827H226.199L227.781 132.839V135.858L226.199 138.373H223.984L223.035 136.361V132.336L224.301 130.827Z" fill="#2A3D46"/>
<path d="M137.289 445.763H151.211V447.775H137.289V445.763Z" fill="#FCFDFC"/>
<path d="M439.457 207.297L441.355 207.8L441.672 209.812L440.723 211.322H438.824L438.191 211.825L431.863 211.322L431.23 210.316L432.812 209.309L439.457 207.297Z" fill="#325255"/>
<path d="M164.816 482.992H169.879L168.613 485.507H167.98L168.297 490.035L166.398 490.538L164.5 488.526L164.184 487.519V483.495L164.816 482.992Z" fill="#335456"/>
<path d="M394.211 357.722L394.844 358.225L394.527 359.231L395.793 360.237L391.68 364.262L385.984 369.293H385.352L385.984 366.777L393.578 358.728L394.211 357.722Z" fill="#1D7941"/>
<path d="M163.867 487.519H164.5L165.766 489.532L167.664 490.035H168.297L171.461 497.078V497.581H169.246L166.082 493.053L164.184 489.532L163.867 487.519Z" fill="#44A860"/>
<path d="M413.195 291.313H416.359L420.156 293.326L422.688 296.344L424.27 298.86V299.866H424.902L427.434 305.4L428.383 307.412L428.699 311.437L427.75 309.928L425.535 303.891L422.688 298.357L418.574 294.332L415.727 292.823L413.195 291.816V291.313Z" fill="#DEECDC"/>
<path d="M468.883 381.87H469.516L471.098 393.944L473.629 415.074L473.312 418.093H472.996L468.883 383.882V381.87Z" fill="#E8F3E8"/>
<path d="M155.641 274.208L156.906 276.221L160.703 285.779L163.551 292.823L163.234 293.829L161.336 289.301L160.07 288.798L156.273 279.239L155.324 276.724L155.641 274.208Z" fill="#1E2F37"/>
<path d="M482.172 429.664H483.438L483.121 432.179L484.07 434.695L488.184 439.726L488.816 442.744L487.551 441.738L485.02 438.719L482.172 435.701L481.223 433.185L481.855 430.167L482.172 429.664Z" fill="#E0EEDD"/>
<path d="M503.371 382.373H503.688V385.895L502.422 392.435L501.473 392.938L500.523 390.926V389.92L499.574 389.416L499.891 386.901L501.473 385.392L503.055 382.876L503.371 382.373Z" fill="#D1E7CE"/>
<path d="M106.598 430.167L108.18 432.682L111.977 440.732L116.09 450.794L117.672 454.818L117.355 456.328L115.141 451.297L111.977 443.75L108.496 435.701L106.598 431.676V430.167Z" fill="#EDF5EE"/>
<path d="M408.133 167.05L414.145 167.553L414.461 168.056V170.571H409.082L407.816 170.068V167.553L408.133 167.05Z" fill="#FCBE44"/>
<path d="M163.234 312.946H165.449L168.93 313.953V315.965L168.297 316.971L164.5 317.474L162.285 313.953L163.234 312.946Z" fill="#335456"/>
<path d="M410.031 144.41L411.93 144.913L416.043 148.938L415.727 151.454L414.145 150.951L410.348 147.429L409.715 145.417L410.031 144.41Z" fill="#FCBE44"/>
<path d="M100.586 377.342H101.219V381.87L99.9531 405.515H99.6367L99.3203 403V397.969L100.27 379.355L100.586 377.342Z" fill="#EBF4EB"/>
<path d="M460.34 147.429L461.289 148.435V150.448L455.91 153.466L454.961 152.963L454.645 150.951L458.441 148.435L460.34 147.429Z" fill="#FCBE44"/>
<path d="M423.004 327.536H423.32V332.064L422.688 345.144L421.422 345.647L419.523 353.697L419.207 352.188L422.055 336.592L423.004 327.536Z" fill="#1F7843"/>
<path d="M418.574 130.827L419.84 131.33L422.371 137.87L422.055 140.386L420.473 139.883L418.258 133.342L418.574 130.827Z" fill="#FCBE44"/>
<path d="M434.078 121.771H435.977V131.33L434.395 131.833L434.078 131.33V121.771Z" fill="#FCBE44"/>
<path d="M455.594 170.571L458.758 171.577L461.605 173.087L461.922 174.596L461.605 175.602L458.758 175.099L455.594 173.59L455.277 171.577L455.594 170.571Z" fill="#FCBE44"/>
<path d="M451.797 129.821L453.062 130.324L452.746 132.839L450.215 137.87L448.949 138.876L448.316 137.87L448.633 135.858L451.164 130.827L451.797 129.821Z" fill="#FCBE44"/>
<path d="M370.797 267.668L371.113 269.177L370.164 273.202L369.215 275.214V278.736L370.797 279.742L371.43 280.748L369.531 281.252L367 277.227L368.898 271.693L370.797 267.668Z" fill="#D5E2D4"/>
<path d="M440.406 165.037H442.305L443.254 167.05L442.938 169.565L439.773 171.577L439.457 168.559L439.141 167.05L440.406 165.037Z" fill="#2C444B"/>
<path d="M88.5625 426.645H89.5117L90.1445 428.155V431.173L88.2461 434.695L85.3984 437.713L83.5 441.235L82.5508 444.757L81.6016 444.253L82.2344 441.738L84.1328 437.21L87.2969 433.689L88.8789 431.676L89.1953 428.658L88.5625 426.645Z" fill="#DFEDDC"/>
<path d="M460.656 451.8L460.973 453.812L458.441 461.359H457.809L456.859 456.328V452.806L457.809 454.818H459.391L460.023 452.806L460.656 451.8Z" fill="#4FA968"/>
<path d="M300.871 65.928H302.453L303.402 67.4373L303.086 70.9589L302.77 71.462H300.555L299.922 70.4558V67.4373L300.871 65.928Z" fill="#FEFEFE"/>
<path d="M73.375 343.635L75.9062 345.647L79.7031 351.181L81.2852 356.212L80.9688 358.225L78.4375 352.188L75.5898 347.157L73.375 344.641V343.635Z" fill="#DFEEDC"/>
<path d="M456.543 466.893L456.859 468.905L453.062 481.482L451.797 486.513L450.848 487.016L451.797 481.985L456.227 467.396L456.543 466.893Z" fill="#EAF4EB"/>
<path d="M163.234 297.35L164.184 297.854L162.285 303.388L160.387 305.903H160.07L159.754 308.418H159.438V303.891H160.07L160.703 300.872L162.285 298.357L163.234 297.35Z" fill="#335456"/>
<path d="M354.344 291.313H354.66L354.977 298.357L357.508 300.872L358.773 303.388L359.723 306.406L358.141 305.4L354.66 300.872L354.344 298.86V291.313Z" fill="#E1EFE1"/>
<path d="M167.348 227.421L168.93 227.924L173.676 231.948V233.458L174.941 234.464L173.992 234.967L167.031 228.93L167.348 227.421Z" fill="#294046"/>
<path d="M135.074 204.781L139.504 207.297L141.086 208.303L142.035 209.812L142.668 210.316V211.322L141.086 210.819L134.758 206.794L135.074 204.781Z" fill="#2C444A"/>
<path d="M431.23 211.322H438.191L437.875 212.831L436.609 213.837H432.812L431.23 212.328V211.322Z" fill="#253640"/>
<path d="M285.051 290.307L286.316 291.313L287.266 292.823H290.43L289.797 294.332L285.367 294.835H279.672V294.332L283.469 293.829L284.734 291.313L285.051 290.307Z" fill="#EDF2EF"/>
<path d="M420.156 399.981H424.27L425.535 400.988L425.852 400.484H427.434L427.75 402.497L428.699 403L421.738 401.994L417.941 401.491V400.988L420.156 400.484V399.981Z" fill="#19272F"/>
<path d="M439.457 168.056H439.773V171.577L442.621 169.062L442.305 171.074L440.406 174.596L439.773 177.615H438.824L439.141 173.59L437.559 174.093L436.926 172.584H439.457L439.141 171.577V168.559L439.457 168.056Z" fill="#2A3F47"/>
<path d="M323.652 398.975H325.234L325.867 399.981V403.503L325.234 405.012H323.652L323.02 403L323.336 399.981L323.652 398.975Z" fill="#EFF1F0"/>
<path d="M461.605 450.794L462.238 452.303L457.176 467.899L456.543 466.39L457.809 461.359H458.441L459.074 458.34L461.605 450.794Z" fill="#E7F2E8"/>
<path d="M240.438 350.175L241.703 351.684L243.285 352.691V354.2H241.703L240.754 353.194L239.488 354.2V353.194H238.223V354.2H236.641L236.324 351.684H239.805L240.438 350.175Z" fill="#E7ECE8"/>
<path d="M217.656 436.707L218.922 437.21L219.238 437.713V441.235L218.605 442.744H217.023L216.391 439.223L217.023 437.21L217.656 436.707Z" fill="#F1F3F2"/>
<path d="M394.527 301.878L394.844 302.884L391.68 312.946L390.414 313.953L389.148 315.965L389.781 312.946L392.629 305.903L394.527 301.878Z" fill="#1D7A42"/>
<path d="M292.645 417.59L293.91 418.093L294.543 419.099L294.227 422.621L293.594 423.627L292.328 423.124L291.695 422.117V419.099L292.645 417.59Z" fill="#EBEEEC"/>
<path d="M496.094 342.629L496.727 343.132L493.562 347.157L490.715 353.194L488.184 361.746L487.551 362.249L488.5 357.218L490.715 350.678L493.562 345.647L496.094 342.629Z" fill="#DEEDDB"/>
<path d="M68.6289 362.753L69.8945 363.759L75.2734 371.808L77.4883 375.33L76.8555 376.336L70.5273 366.274L68.6289 363.759V362.753Z" fill="#EBF4ED"/>
<path d="M106.914 497.581L107.547 499.091L108.812 504.122L111.344 508.649L112.926 510.159L112.609 511.165L109.762 508.649L107.863 505.128L106.914 500.6V497.581Z" fill="#DFEEDC"/>
<path d="M434.395 166.043L435.66 167.05V170.068L434.711 172.08H433.445L433.129 168.559L433.762 166.546L434.395 166.043Z" fill="#FCBE44"/>
<path d="M471.73 361.243L473.312 362.249L475.527 365.268L476.793 368.79L477.426 373.318H476.793L474.578 366.274L473.312 363.759L471.73 362.249V361.243Z" fill="#DFEEDC"/>
<path d="M468.883 381.87H469.516L471.098 393.944L471.414 397.969L470.781 399.981L468.883 383.882V381.87Z" fill="#E7F2E6"/>
<path d="M174.625 302.381L175.258 303.891L175.574 306.909L174.309 312.443L172.094 316.468L171.145 316.971V315.462L172.727 313.45L173.992 309.425L174.625 302.381Z" fill="#D8E6D6"/>
<path d="M103.75 282.761L105.016 285.276L106.914 287.289L108.18 289.804L108.812 291.817L108.496 293.829L107.863 292.32L105.965 288.295L103.117 285.276L103.75 282.761Z" fill="#D3E1D2"/>
<path d="M130.012 233.961L131.91 234.967L131.594 237.482L130.961 238.489L129.062 238.992L127.797 237.986H128.746L129.062 235.47L130.012 233.961Z" fill="#325355"/>
<path d="M371.746 243.016L372.695 244.023L373.012 246.538V255.091L372.695 258.109H372.379L371.746 247.041V243.016Z" fill="#D7E5D6"/>
<path d="M114.508 404.509H114.824L115.773 409.037L117.355 411.552L118.938 411.049L120.52 409.037L120.836 410.043L119.254 412.559L116.723 413.062L115.141 410.546L114.508 408.534V404.509Z" fill="#DEEDDC"/>
<path d="M77.1719 375.833L78.4375 376.839L81.2852 381.367L83.5 385.392L84.7656 387.907H83.8164L81.2852 383.882L79.0703 379.858L77.1719 376.839V375.833Z" fill="#EFF5EF"/>
<path d="M430.281 210.819L431.23 211.322L432.18 212.831L432.812 213.334L437.242 213.837L436.926 214.843L434.711 215.85L432.496 215.346L430.281 212.328V210.819Z" fill="#D3E1D2"/>
<path d="M255.625 300.872H255.941V311.94L254.359 311.437L254.043 306.406L255.309 305.903L255.625 300.872Z" fill="#F4F8F5"/>
<path d="M158.172 282.258H158.805L161.336 287.289L163.551 292.823L163.234 293.829L161.336 289.301L160.07 288.798L158.172 283.767V282.258Z" fill="#203139"/>
<path d="M431.23 184.155H431.863L432.496 188.179L432.812 196.732H431.863L431.23 187.173V184.155Z" fill="#263C42"/>
<path d="M427.75 166.547H428.699L429.648 171.577L429.965 172.584L427.75 171.577L426.484 169.062L426.801 167.553L427.75 166.547Z" fill="#2F4C50"/>
<path d="M445.469 144.913L447.367 145.92L449.582 149.441V153.466L448.316 150.951L446.418 146.926L445.469 145.92V144.913Z" fill="#FBBD44"/>
<path d="M100.27 354.2L100.586 355.206L98.0547 358.225L95.8398 364.262L94.5742 369.293L93.9414 369.796L94.8906 364.262L96.1562 360.237L99.0039 355.206L100.27 354.2Z" fill="#DEEDDB"/>
<path d="M112.609 443.75H113.242L117.672 454.818L117.355 456.328L115.141 451.297L112.609 445.26V443.75Z" fill="#EFF6F0"/>
<path d="M364.469 241.004H365.418L366.684 247.544V251.066H366.051L365.418 250.06V246.538H365.102L364.469 241.004Z" fill="#CDDED1"/>
<path d="M127.48 214.34H128.746L129.379 221.384L128.113 222.893L127.48 217.359V214.34Z" fill="#2D454C"/>
<path d="M86.9805 462.365L88.2461 463.371L91.0938 466.39L90.7773 467.396L89.8281 466.893L88.8789 467.396L88.2461 468.402L86.9805 464.377V462.365Z" fill="#E0EEDF"/>
<path d="M124 213.334L127.48 214.34L127.797 217.359V221.384L126.848 219.874L125.582 215.346L124 213.334Z" fill="#DCEADA"/>
<path d="M92.3594 401.994L93.625 403L96.1562 408.031L97.7383 411.049L97.1055 412.056L94.2578 407.025L92.3594 403V401.994Z" fill="#ECF4ED"/>
<path d="M83.5 367.28L84.4492 368.79L86.6641 376.336L85.3984 375.833L84.1328 372.814L83.5 369.796V367.28Z" fill="#DFEEDC"/>
<path d="M455.594 449.787L456.227 450.794L457.809 459.849V461.862H457.176L455.594 453.309V449.787Z" fill="#EDF5EC"/>
<path d="M476.477 411.552L476.793 413.062L474.262 418.596L473.629 417.087V414.068L474.895 413.565L476.477 412.559V411.552Z" fill="#4EA968"/>
<path d="M500.523 364.765L501.156 365.771L497.359 372.311L495.777 374.827V373.317L499.891 365.771L500.523 364.765Z" fill="#EAF3EB"/>
<path d="M429.648 175.099L430.598 175.602L431.863 183.148V184.155L430.914 184.658L429.648 177.111V175.099Z" fill="#2C434A"/>
<path d="M100.586 473.433L105.332 473.936L108.496 475.445L109.129 475.948L108.812 476.955L105.016 475.445L101.219 474.439L100.586 473.433Z" fill="#DEEDDA"/>
<path d="M102.168 421.111L103.117 421.614L106.914 429.664L106.281 430.67L102.168 422.62V421.111Z" fill="#ECF5ED"/>
<path d="M441.039 166.043L441.988 166.546L442.305 168.056L441.355 170.571L439.773 171.577L440.09 167.553L441.039 166.043Z" fill="#FCBE44"/>
<path d="M424.902 301.375L425.852 301.878L428.383 307.412L428.699 311.437L427.75 309.928L425.535 303.891L424.902 301.375Z" fill="#DFEEDE"/>
<path d="M120.203 457.334H120.836L120.203 460.856L120.836 463.371L120.52 464.88L118.305 459.346V457.837H118.938V458.843L119.887 458.34L120.203 457.334Z" fill="#F0F6F0"/>
<path d="M154.059 509.152L156.59 512.171L159.121 514.686V515.693L160.387 516.699L159.754 517.202L156.273 513.68L154.059 510.159V509.152Z" fill="#335456"/>
<path d="M105.016 250.06H105.332L106.281 254.588L106.598 255.091L106.281 259.619L105.648 259.115L105.016 255.091L104.699 251.066L105.016 250.06Z" fill="#D6E4D4"/>
<path d="M464.77 441.738H465.402L465.086 444.253L462.555 451.297L461.922 451.8L462.238 449.284L464.77 441.738Z" fill="#EEF5EF"/>
<path d="M99.6367 391.932H99.9531L100.27 394.95V399.981L99.9531 405.515H99.6367L99.3203 403V397.969L99.6367 391.932Z" fill="#E4F0E5"/>
<path d="M108.496 293.326L109.129 293.829V299.866L108.496 303.388L106.914 304.897L108.18 299.866L108.496 293.326Z" fill="#CAD9CB"/>
<path d="M471.73 362.753L473.312 363.256L475.844 368.79L476.16 371.808L474.895 369.293L473.629 366.274L471.73 362.753Z" fill="#52A96B"/>
<path d="M106.281 354.703L108.18 355.709L110.078 358.225L111.66 363.256H111.027L108.496 357.722L106.281 355.206V354.703Z" fill="#DFEEDC"/>
<path d="M135.391 199.751H135.707L136.34 204.278L137.922 205.285L139.82 206.794L138.555 207.297L135.074 204.782L135.391 199.751Z" fill="#D6E3D5"/>
<path d="M404.336 311.437L404.652 312.946L402.754 320.493L401.805 324.518H401.488L401.805 320.493L404.336 311.437Z" fill="#266F4A"/>
<path d="M357.508 227.421L358.773 227.924L361.305 231.445L362.254 233.458L361.621 233.961L360.672 232.452L360.039 230.942L358.773 230.439L357.508 227.924V227.421Z" fill="#D4E4D7"/>
<path d="M167.348 227.421L168.93 227.924L172.41 230.942V231.445L170.195 230.942L168.613 229.433L167.031 228.93L167.348 227.421Z" fill="#2D464C"/>
<path d="M114.191 449.787L115.141 450.291L117.039 455.825L115.141 455.321L114.508 454.315H115.141L114.191 449.787Z" fill="#51A86B"/>
<path d="M478.691 379.858L479.957 382.373L481.223 384.385H482.172V385.392L480.273 385.895L479.008 383.379L478.691 379.858Z" fill="#DFEEDC"/>
<path d="M288.848 309.425H292.328V311.94L292.012 310.934L288.848 311.437V309.425Z" fill="#E1E4E3"/>
<path d="M451.48 480.476H452.113L451.797 483.495L451.164 486.01H450.531L449.898 483.495L451.48 480.476Z" fill="#4CA866"/>
<path d="M150.895 214.843L153.742 216.353L154.059 217.359L153.742 218.365L152.16 217.862L151.211 216.856L150.262 215.346L150.895 214.843Z" fill="#2B444A"/>
<path d="M170.828 498.084L172.094 498.587L175.574 505.128H174.625L170.828 498.587V498.084Z" fill="#335456"/>
<path d="M456.543 466.893L456.859 468.905L454.961 474.942L454.328 474.439L454.961 471.421L456.543 466.893Z" fill="#ECF5ED"/>
<path d="M106.598 430.167L108.18 432.682L110.078 437.21H109.129L106.598 431.676V430.167Z" fill="#EEF6F0"/>
<path d="M480.906 403H481.539L481.223 405.012L479.008 410.043L478.375 409.54L479.008 407.528L480.906 403Z" fill="#EDF5EE"/>
<path d="M466.035 361.746L466.668 362.249L463.504 366.777L462.238 369.796L461.922 368.79L463.82 364.262L466.035 361.746Z" fill="#DEEDDD"/>
<path d="M369.531 233.961L370.48 235.47L371.746 239.495L371.43 242.513L370.797 240.501L369.531 235.47V233.961Z" fill="#D2E0D1"/>
<path d="M147.73 213.837L150.578 214.34L150.895 215.85L151.527 216.856L148.68 215.85L147.098 214.843L147.73 213.837Z" fill="#23373E"/>
<path d="M410.031 147.429L411.93 148.435L413.512 149.944L413.195 151.454L410.98 149.944L410.031 147.429Z" fill="#E0EEDD"/>
<path d="M308.781 421.111H310.996L310.68 423.124L310.363 423.627H308.781L308.465 421.614L308.781 421.111Z" fill="#EEF2EF"/>
<path d="M113.559 455.322H115.773L117.355 455.825L117.988 455.322L118.621 457.837H117.672L115.773 456.831L113.559 455.825V455.322Z" fill="#E8F3EA"/>
<path d="M461.605 450.794L462.238 452.303L460.34 457.837L459.707 458.34L460.023 455.322L461.605 450.794Z" fill="#E9F3EA"/>
<path d="M425.852 400.484H427.434L427.75 402.497L428.699 403L425.219 402.497L424.586 401.491L425.852 400.484Z" fill="#1A2830"/>
<path d="M120.203 244.023L121.152 244.526L117.355 248.047L116.723 247.544V246.538L120.203 244.023Z" fill="#D7E5D5"/>
<path d="M149.945 498.084H152.477L151.527 500.097L151.211 502.612L150.262 500.6L149.945 498.084Z" fill="#335456"/>
<path d="M93.9414 298.357L94.5742 299.363L95.5234 303.388L97.1055 305.903L96.7891 306.909L95.207 304.897L93.9414 301.375V298.357Z" fill="#2A3E47"/>
<path d="M427.75 166.547H428.699L429.332 170.571H428.383L427.434 169.062L427.75 166.547Z" fill="#F9BD46"/>
<path d="M468.883 381.87H469.516L470.148 385.895V389.919L469.516 388.913L468.883 383.882V381.87Z" fill="#EBF4EC"/>
<path d="M390.414 255.594L391.68 257.606L391.047 259.619L390.414 260.625L390.098 260.122V256.097L390.414 255.594Z" fill="#273842"/>
<path d="M431.23 184.155H431.863L432.496 188.179V190.192L431.547 190.695L431.23 184.155Z" fill="#293F46"/>
<path d="M240.754 421.111H242.336L242.02 423.124L240.438 424.13L240.121 422.117L240.754 421.111Z" fill="#E8ECEA"/>
<path d="M195.824 360.237H196.457L195.824 365.268L195.508 366.274H194.875L195.191 362.249L195.824 360.237Z" fill="#263D42"/>
<path d="M404.652 268.171L406.234 269.68L407.5 271.693V272.699L405.918 271.693L404.336 268.674L404.652 268.171Z" fill="#FABD46"/>
<path d="M385.668 390.423H386.617V397.466H385.984L385.668 390.423Z" fill="#CDDBCD"/>
<path d="M198.039 350.175H198.672L197.723 355.206L196.773 355.709L197.09 352.691L198.039 350.175Z" fill="#22373C"/>
<path d="M160.703 288.798L161.652 289.301L162.918 292.32V294.332H162.285L160.703 290.307V288.798Z" fill="#23353E"/>
<path d="M442.621 204.278L442.938 205.788L441.988 210.819H441.672L441.039 206.794L442.621 204.278Z" fill="#DCEADA"/>
<path d="M471.098 397.969L471.73 398.975L472.047 401.994V406.018L471.414 405.012L471.098 402.497V397.969Z" fill="#EDF5EE"/>
<path d="M193.926 370.802H194.559L194.242 373.317L193.293 376.839H192.66L192.977 374.324L193.926 370.802Z" fill="#1D3136"/>
<path d="M174.625 302.381L175.258 303.891L175.574 306.909L175.258 308.922L174.309 309.425L174.625 302.381Z" fill="#DDEADB"/>
<path d="M415.094 258.109L416.676 260.625L416.992 261.631V264.649L416.359 264.146L415.41 260.625L415.094 258.109Z" fill="#D7E5D5"/>
<path d="M406.551 82.53L408.133 83.0331L409.715 86.0517L410.031 88.064H409.398L408.133 85.0455L406.551 83.5362V82.53Z" fill="#DCEBD9"/>
<path d="M196.141 252.575L197.406 253.582L198.672 256.6V257.606L197.406 256.6L196.141 253.582V252.575Z" fill="#1D2E35"/>
<path d="M192.66 243.016L193.609 243.52L194.875 247.544V248.55L193.926 248.047L192.66 244.526V243.016Z" fill="#1F3238"/>
<path d="M428.383 171.577L431.23 172.584L429.965 173.087L430.281 175.099L429.332 175.602L428.383 172.584V171.577Z" fill="#293D46"/>
<path d="M386.617 345.144H386.934L386.617 350.175L385.984 348.163V347.157L385.035 346.654L385.352 345.647L386.617 345.144Z" fill="#DDEBDB"/>
<path d="M324.285 287.792H324.602L325.234 290.81L325.867 293.326H324.285V287.792Z" fill="#EFF3EF"/>
<path d="M396.426 251.066L399.273 252.575L401.172 253.078V253.582H398.324L396.426 252.072V251.066Z" fill="#D8E6D7"/>
<path d="M130.645 190.695L132.543 191.701L134.125 194.217L134.441 195.726L133.492 195.223L131.91 192.707L130.645 190.695Z" fill="#E0EFE8"/>
<path d="M411.613 144.41L413.195 144.913L415.094 146.926L415.727 148.435L414.145 147.429L411.613 144.913V144.41Z" fill="#E0EEDE"/>
<path d="M240.367 132.484L241.949 132.987L242.266 134.496L241 135.502L240.051 133.49L240.367 132.484Z" fill="#2B3D46"/>
<path d="M186.016 387.907L186.332 389.416L183.801 390.926H182.852V389.919L186.016 387.907Z" fill="#1C2F34"/>
<path d="M419.84 365.268L420.156 367.28L418.258 372.311L417.941 371.305L419.84 365.268Z" fill="#1D7942"/>
<path d="M441.355 166.043H442.938L443.254 168.559L442.621 169.565L441.672 170.068L441.988 166.546L441.355 166.043Z" fill="#2D454C"/>
<path d="M212.56 196.616H344.516V198.303H212.56V196.616Z" fill="#1A2D31"/>
<path d="M212.56 440.486H344.516V442.174H212.56V440.486Z" fill="#1A2D31"/>
<path d="M212.56 281.844H330.378V283.532H212.56V281.844Z" fill="#1A2D31"/>
<path d="M212.56 213.492H340.589V215.18H212.56V213.492Z" fill="#1A2D31"/>
<path d="M212.56 229.526H326.451V231.213H212.56V229.526Z" fill="#1A2D31"/>
<path d="M212.56 296.189H339.018V297.877H212.56V296.189Z" fill="#1A2D31"/>
<path d="M212.56 309.691H339.018V311.378H212.56V309.691Z" fill="#1A2D31"/>
<path d="M212.56 245.559H322.524V247.246H212.56V245.559Z" fill="#1A2D31"/>
<path d="M210.989 365.384H342.946V367.072H210.989V365.384Z" fill="#1A2D31"/>
<path d="M210.989 385.637H342.946V387.324H210.989V385.637Z" fill="#1A2D31"/>
<path d="M210.989 326.568H342.946V328.255H210.989V326.568Z" fill="#1A2D31"/>
<path d="M210.989 346.82H342.946V348.508H210.989V346.82Z" fill="#1A2D31"/>
<path d="M427.501 221.96C415.882 222.654 410.062 238.715 417.27 249.778C416.962 251.795 415.182 253.407 413.883 253.789C413.223 253.983 413.864 254.921 416.071 255.033C418.078 255.135 419.672 254.237 420.846 253.065C427.183 258.512 439.781 257.022 442.883 243.966C445.616 232.462 438.765 221.287 427.501 221.96Z" fill="white" stroke="#303030" stroke-width="1.5" stroke-miterlimit="10" stroke-linecap="round" stroke-linejoin="round"/>
<path d="M428.357 244.569C427.696 244.569 427.156 244.842 426.735 245.388C426.313 245.935 426.103 246.62 426.103 247.443C426.103 248.227 426.313 248.896 426.735 249.453C427.156 250.009 427.696 250.287 428.357 250.287C429.001 250.287 429.534 250.009 429.955 249.453C430.376 248.896 430.586 248.227 430.586 247.443C430.586 246.619 430.376 245.934 429.955 245.388C429.534 244.842 429.001 244.569 428.357 244.569ZM432.766 230.993C432.304 230.035 431.66 229.277 430.834 228.721C430.008 228.165 429.059 227.887 427.986 227.887C426.698 227.887 425.583 228.263 424.642 229.015C424.201 229.367 423.809 229.77 423.466 230.224C422.824 231.075 422.879 232.426 423.561 233.226C424.207 233.982 425.198 233.986 425.869 233.266C425.957 233.173 426.047 233.085 426.14 233.002C426.644 232.56 427.201 232.338 427.812 232.338C428.209 232.338 428.556 232.426 428.853 232.601C429.15 232.776 429.381 233.033 429.546 233.373C429.711 233.713 429.794 234.11 429.794 234.563C429.794 235.037 429.707 235.444 429.533 235.784C429.36 236.124 429.121 236.387 428.815 236.572C428.509 236.757 428.15 236.85 427.738 236.85H426.672L426.808 240.906C426.843 241.956 427.535 242.785 428.378 242.785C429.203 242.785 429.888 241.988 429.945 240.961L429.985 240.243C430.438 240.034 430.863 239.778 431.255 239.462C431.932 238.916 432.468 238.21 432.865 237.344C433.261 236.479 433.46 235.439 433.46 234.223C433.46 233.028 433.228 231.951 432.766 230.993Z" fill="#00826F"/>
<path d="M212.56 400.826H344.516V402.513H212.56V400.826Z" fill="#1A2D31"/>
<path d="M212.56 421.078H344.516V422.766H212.56V421.078Z" fill="#1A2D31"/>
</svg>
