<svg width="112" height="78" viewBox="0 0 112 78" fill="none" xmlns="http://www.w3.org/2000/svg">
<g opacity="0.75" filter="url(#filter0_d_262_134)">
<path d="M5.92031 30.9773C5.12514 31.7468 4.67214 32.7963 4.66081 33.8953C4.64948 34.9943 5.08075 36.0529 5.85989 36.8386L21.5481 52.6475C22.3286 53.4336 23.3936 53.8817 24.5088 53.8932C25.6239 53.9047 26.6979 53.4787 27.4945 52.7088C28.291 51.939 28.7449 50.8884 28.7562 49.7882C28.7676 48.6879 28.3355 47.6282 27.555 46.8421L18.9675 38.1903L51.2914 38.5235C52.4062 38.535 53.4798 38.1091 54.2761 37.3395C55.0724 36.5699 55.5262 35.5196 55.5375 34.4198C55.5488 33.3199 55.1169 32.2605 54.3366 31.4746C53.5563 30.6888 52.4917 30.2408 51.3769 30.2293L19.053 29.8961L27.817 21.426C28.2114 21.0448 28.5258 20.5906 28.7423 20.0895C28.9588 19.5884 29.0731 19.0501 29.0787 18.5053C29.0843 17.9605 28.9811 17.4199 28.775 16.9145C28.5689 16.409 28.2639 15.9484 27.8774 15.5592C27.491 15.17 27.0306 14.8596 26.5226 14.6459C26.0146 14.4321 25.469 14.3192 24.9168 14.3135C24.3646 14.3078 23.8167 14.4095 23.3045 14.6127C22.7922 14.8159 22.3255 15.1167 21.9311 15.4979L5.92031 30.9773Z" fill="#004F3F"/>
<path d="M98.3808 31.9841C99.1603 32.7896 99.5916 33.8751 99.58 35.0022C99.5683 36.1292 99.1148 37.2056 98.3189 37.9949L82.2934 53.8763C81.4962 54.6661 80.4213 55.1032 79.3054 55.0917C78.1895 55.0802 77.124 54.621 76.3431 53.815C75.5623 53.009 75.1302 51.9224 75.1418 50.7941C75.1534 49.6657 75.6079 48.5882 76.4052 47.7985L85.1772 39.1071L52.8318 38.7737C51.7163 38.7622 50.6511 38.3031 49.8705 37.4973C49.0899 36.6916 48.6579 35.6053 48.6695 34.4774C48.6811 33.3494 49.1354 32.2722 49.9325 31.4828C50.7295 30.6933 51.804 30.2563 52.9195 30.2678L85.2649 30.6012L76.6738 21.7336C76.2872 21.3346 75.9821 20.8624 75.776 20.344C75.5699 19.8257 75.4668 19.2714 75.4725 18.7127C75.4783 18.154 75.5928 17.6019 75.8096 17.0879C76.0263 16.574 76.3411 16.1082 76.7359 15.7171C77.1306 15.3261 77.5977 15.0175 78.1104 14.809C78.6231 14.6005 79.1713 14.4961 79.7239 14.5018C80.2764 14.5075 80.8224 14.6231 81.3307 14.8422C81.839 15.0613 82.2996 15.3794 82.6862 15.7785L98.3808 31.9841Z" fill="#E6B373"/>
</g>
<defs>
<filter id="filter0_d_262_134" x="0.315918" y="0.366943" width="111.591" height="76.741" filterUnits="userSpaceOnUse" color-interpolation-filters="sRGB">
<feFlood flood-opacity="0" result="BackgroundImageFix"/>
<feColorMatrix in="SourceAlpha" type="matrix" values="0 0 0 0 0 0 0 0 0 0 0 0 0 0 0 0 0 0 127 0" result="hardAlpha"/>
<feOffset dy="4"/>
<feGaussianBlur stdDeviation="2"/>
<feComposite in2="hardAlpha" operator="out"/>
<feColorMatrix type="matrix" values="0 0 0 0 0 0 0 0 0 0.309804 0 0 0 0 0.247059 0 0 0 1 0"/>
<feBlend mode="normal" in2="BackgroundImageFix" result="effect1_dropShadow_262_134"/>
<feBlend mode="normal" in="SourceGraphic" in2="effect1_dropShadow_262_134" result="shape"/>
</filter>
</defs>
</svg>
