<svg width="101" height="84" viewBox="0 0 101 84" fill="none" xmlns="http://www.w3.org/2000/svg">
<g opacity="0.6">
<path fill-rule="evenodd" clip-rule="evenodd" d="M61.375 11.4583C61.375 10.2428 61.8754 9.07697 62.7662 8.21743C63.657 7.35789 64.8652 6.875 66.125 6.875H70.875C72.1348 6.875 73.343 7.35789 74.2338 8.21743C75.1246 9.07697 75.625 10.2428 75.625 11.4583V20.625H85.125C86.3848 20.625 87.593 21.1079 88.4838 21.9674C89.3746 22.827 89.875 23.9928 89.875 25.2083V29.7917C89.875 31.0072 89.3746 32.173 88.4838 33.0326C87.593 33.8921 86.3848 34.375 85.125 34.375H75.625V43.5417C75.625 44.7572 75.1246 45.923 74.2338 46.7826C73.343 47.6421 72.1348 48.125 70.875 48.125H66.125C64.8652 48.125 63.657 47.6421 62.7662 46.7826C61.8754 45.923 61.375 44.7572 61.375 43.5417V34.375H51.875C50.6152 34.375 49.407 33.8921 48.5162 33.0326C47.6254 32.173 47.125 31.0072 47.125 29.7917V25.2083C47.125 23.9928 47.6254 22.827 48.5162 21.9674C49.407 21.1079 50.6152 20.625 51.875 20.625H61.375V11.4583ZM70.875 11.4583H66.125V22.9167C66.125 23.5245 65.8748 24.1073 65.4294 24.5371C64.984 24.9669 64.3799 25.2083 63.75 25.2083H51.875V29.7917H63.75C64.3799 29.7917 64.984 30.0331 65.4294 30.4629C65.8748 30.8927 66.125 31.4755 66.125 32.0833V43.5417H70.875V32.0833C70.875 31.4755 71.1252 30.8927 71.5706 30.4629C72.016 30.0331 72.6201 29.7917 73.25 29.7917H85.125V25.2083H73.25C72.6201 25.2083 72.016 24.9669 71.5706 24.5371C71.1252 24.1073 70.875 23.5245 70.875 22.9167V11.4583Z" fill="#E6B373"/>
</g>
<g opacity="0.6">
<path fill-rule="evenodd" clip-rule="evenodd" d="M23.8905 34.7619C23.2424 33.7398 23.0371 32.4804 23.3198 31.261C23.6025 30.0415 24.3501 28.9619 25.3981 28.2595L29.3494 25.6111C30.3974 24.9088 31.6599 24.6412 32.8592 24.8674C34.0585 25.0935 35.0964 25.7948 35.7445 26.817L40.6321 34.5252L48.5348 29.2286C49.5827 28.5262 50.8453 28.2587 52.0446 28.4848C53.2439 28.7109 54.2818 29.4122 54.9299 30.4344L57.3737 34.2885C58.0218 35.3107 58.2271 36.57 57.9444 37.7895C57.6617 39.0089 56.9141 40.0886 55.8661 40.791L47.9635 46.0877L52.851 53.7959C53.4992 54.8181 53.7044 56.0774 53.4217 57.2969C53.139 58.5163 52.3914 59.596 51.3435 60.2984L47.3921 62.9467C46.3442 63.6491 45.0817 63.9167 43.8823 63.6905C42.683 63.4644 41.6451 62.7631 40.997 61.7409L36.1094 54.0326L28.2067 59.3293C27.1588 60.0317 25.8963 60.2992 24.697 60.0731C23.4976 59.847 22.4597 59.1457 21.8116 58.1235L19.3678 54.2693C18.7197 53.2472 18.5144 51.9878 18.7971 50.7684C19.0799 49.5489 19.8274 48.4693 20.8754 47.7669L28.7781 42.4702L23.8905 34.7619ZM31.7932 29.4653L27.8418 32.1136L33.9513 41.749C34.2754 42.2601 34.378 42.8897 34.2367 43.4994C34.0953 44.1092 33.7215 44.649 33.1975 45.0002L23.3192 51.621L25.763 55.4751L35.6413 48.8543C36.1653 48.5031 36.7965 48.3694 37.3962 48.4824C37.9959 48.5955 38.5148 48.9461 38.8389 49.4572L44.9483 59.0926L48.8997 56.4443L42.7902 46.8089C42.4662 46.2978 42.3635 45.6682 42.5049 45.0584C42.6462 44.4487 43.02 43.9089 43.544 43.5577L53.4224 36.9369L50.9786 33.0827L41.1002 39.7035C40.5762 40.0547 39.945 40.1885 39.3453 40.0754C38.7457 39.9624 38.2267 39.6117 37.9026 39.1006L31.7932 29.4653Z" fill="#E6B373"/>
</g>
</svg>
