<svg width="150" height="150" viewBox="0 0 150 150" fill="none" xmlns="http://www.w3.org/2000/svg">
<path d="M100.441 33.2188H89.5881V29.375C89.5824 27.338 88.8183 25.3862 87.4627 23.9458C86.107 22.5055 84.27 21.6936 82.3528 21.6875H53.4117C51.4945 21.6936 49.6575 22.5055 48.3019 23.9458C46.9462 25.3862 46.1821 27.338 46.1764 29.375V33.2188H35.3234C33.4063 33.2248 31.5693 34.0367 30.2136 35.4771C28.858 36.9175 28.0939 38.8693 28.0881 40.9062V121.625C28.0939 123.662 28.858 125.614 30.2136 127.054C31.5693 128.495 33.4063 129.306 35.3234 129.312H60.647V121.625H35.3234V40.9062H46.1764V52.4375H89.5881V40.9062H100.441V60.125H107.676V40.9062C107.671 38.8693 106.907 36.9175 105.551 35.4771C104.195 34.0367 102.358 33.2248 100.441 33.2188ZM82.3528 44.75H53.4117V29.375H82.3528V44.75Z" fill="#004F3F"/>
<path d="M106.456 71.3789L120.927 85.4726M64.853 125.992H79.3236L126.353 80.1875C128.272 78.3185 129.35 75.7837 129.35 73.1406C129.35 70.4975 128.272 67.9627 126.353 66.0937C124.434 64.2248 121.832 63.1748 119.118 63.1748C116.404 63.1748 113.801 64.2248 111.882 66.0937L64.853 111.898V125.992Z" stroke="#E6B373" stroke-width="3.5" stroke-linecap="round" stroke-linejoin="round"/>
<path d="M97.4118 80.1875L79.3236 62.5703L64.853 76.6641L82.9413 94.2812M79.3236 80.1875L73.8971 85.4727M111.882 94.2812L129.971 111.898L115.5 125.992L97.4118 108.375M111.882 111.898L106.456 117.184" stroke="#E6B373" stroke-width="3.5" stroke-linecap="round" stroke-linejoin="round"/>
</svg>
