<svg width="20" height="20" viewBox="0 0 20 20" fill="none" xmlns="http://www.w3.org/2000/svg">
<path d="M4.01187 1.19995H8.03231L8.87319 2.02334L9.03085 2.152L9.21479 2.35785L9.39874 2.53796L9.60895 2.71808L9.81917 2.92393V2.97539H9.87173V3.02685L9.97684 3.07831L10.1608 3.28416H10.2659L10.4498 3.07831L12.2367 1.32861L12.3944 1.19995H16.3885L16.4148 1.22568V3.92744H19.1739L19.2002 3.95317V7.70989L19.1739 7.89001L17.098 9.92276L17.0717 10.0257L17.9914 10.9263L18.1228 11.0807L18.333 11.2608L19.1739 12.0842L19.2002 12.1356V16.021L19.1739 16.0467L17.2819 16.0725H16.4148V18.7742L16.3885 18.8H12.3944L12.3155 18.7485V18.697L12.2104 18.6456L10.9754 17.4362L10.7914 17.2304L10.5812 17.0502L10.3184 16.7929L10.2396 16.69L10.1345 16.7415L8.03231 18.8H4.01187L3.9856 18.7742L3.95932 16.0725L1.22647 16.0467L1.2002 16.021V12.1356L1.38414 11.9298H1.43669V11.8783L1.64691 11.6982L1.83085 11.5181L1.96224 11.3637H2.01479V11.3122L2.22501 11.1321L2.61917 10.7462L2.64545 10.6947H2.69801V10.6432H2.75056V10.5918L2.96078 10.4116L3.24983 10.1029L3.32866 10.0257L3.27611 9.89703L1.2002 7.86428V3.95317L1.22647 3.92744H3.53888L3.95932 3.90171L3.9856 1.22568L4.01187 1.19995ZM5.27319 2.43504L5.24691 2.46077V3.92744L6.84983 3.95317L7.06005 4.13328L8.00603 5.0596L8.03231 6.52627L8.05859 6.65492H9.5564V4.44206L7.53304 2.46077L7.48049 2.43504H5.27319ZM12.8936 2.43504L11.79 3.51574V3.5672L11.6849 3.61866V3.67013L11.5798 3.72159L11.317 3.9789L11.133 4.18475L10.844 4.46779L10.8177 4.6479V6.62919L10.844 6.65492H12.3418L12.3681 5.08533L13.5243 3.95317L15.1272 3.92744L15.1535 3.87597L15.1272 2.43504H12.8936ZM2.48779 5.16252L2.46151 5.21399V7.2982L2.54034 7.42685L4.48487 9.33095L4.53742 9.35668L4.95786 9.38241H6.74472L6.771 9.30521V7.89001L5.16808 7.86428L4.01187 6.73212L3.95932 5.16252H2.48779ZM5.24691 5.16252V6.62919L5.27319 6.65492H6.74472L6.771 6.57773V5.16252H5.24691ZM13.6294 5.16252V6.65492H15.1272L15.1535 5.36837L15.1272 5.16252H13.6294ZM16.4411 5.16252L16.4148 5.18826L16.3885 6.73212L15.9944 7.11808L15.8104 7.32393L15.6265 7.50405L15.4163 7.68416L15.2849 7.83855L15.2323 7.86428L13.6294 7.89001V9.38241H15.5739L15.863 9.35668L16.0732 9.17656L17.9126 7.37539L17.9389 7.221L17.9126 5.16252H16.4411ZM8.05859 7.89001L8.03231 8.07013V11.8526L8.05859 12.1099H12.3418L12.3681 7.94147L12.3418 7.89001H8.05859ZM4.5637 10.6175L4.35348 10.7976L2.54034 12.5731L2.46151 12.676V14.8374H3.93304L3.9856 14.8116L4.01187 13.2678L4.64253 12.6502L4.8002 12.4701L4.87903 12.4187V12.3672L4.98414 12.3157V12.2643L5.06297 12.2385L5.19436 12.1099H6.74472L6.771 12.0842V10.6432L6.74472 10.6175H4.5637ZM13.6294 10.6175V12.0842L13.6557 12.1099H14.7856L15.2586 12.1356L16.3622 13.2163L16.3885 13.2678L16.4148 14.8374H17.9126L17.9389 14.1941V12.6502L17.4922 12.2128L17.3082 12.007L16.8615 11.5953L15.8892 10.6432L15.8367 10.6175H13.6294ZM5.27319 13.345L5.24691 13.3707V14.8116L5.27319 14.8374H6.74472L6.771 14.8116V13.345H5.27319ZM8.05859 13.345L8.03231 13.4994L8.00603 14.9403L6.90239 16.021L6.69217 16.0467L5.24691 16.0725V17.5391L5.27319 17.5649H7.48049L7.69071 17.3847L7.84837 17.2046L7.9272 17.1532V17.1017L8.03231 17.0502V16.9988L8.13742 16.9473L8.76808 16.3298V16.2783L8.87319 16.2269L9.5564 15.5578V13.345H8.05859ZM10.844 13.345L10.8177 13.5508V15.4549L10.9228 15.635L11.133 15.8152L12.9199 17.5649H15.1272V16.0467H13.5768L13.4717 16.021L13.4192 15.9181L13.2352 15.738L13.0776 15.6093L12.8936 15.4035L12.6834 15.2233L12.4995 15.0175L12.4206 14.9403H12.3681V13.5251L12.3418 13.345H10.844ZM13.6294 13.345V14.8374H15.1272L15.1535 13.3707L15.1272 13.345H13.6294Z" fill="#073B30"/>
<path d="M9.50878 9.2666H10.8912L10.92 9.29653V10.7333H9.50878L9.47998 9.32647L9.50878 9.2666Z" fill="#073B30"/>
<path d="M12.387 13.3H12.4685L12.5229 14.6257L12.5501 14.9642L12.6044 15.077L12.9033 15.3308L13.175 15.6411V15.6975H13.2293L13.3651 15.8385L13.6097 16.0642L14.1259 16.0924L15.1855 16.1206L15.2399 16.1488V16.2052L14.6693 16.2334H13.6368L13.5282 16.177L13.338 15.9513L13.0934 15.7257V15.6693L13.0119 15.6411L12.8761 15.4718L12.6859 15.3026L12.4957 15.077L12.3599 14.9359V13.7795L12.387 13.3Z" fill="#1A1E18"/>
<path d="M7.95708 13.6667L8.01246 13.7186L7.98477 14.9371L8.04016 14.989V15.1186L6.87708 16.2075L6.73862 16.2334L5.16016 16.2075L5.18785 16.1297L6.794 16.0779L6.96016 15.9742L7.20939 15.689L7.40323 15.5075L7.62477 15.326L7.70785 15.2482H7.76323V15.1964L7.874 15.1186L7.90169 15.0408L7.92939 13.7445L7.95708 13.6667Z" fill="#060C05"/>
<path d="M9.76115 13.3L9.81383 13.354L9.84018 13.8399V15.4866L9.76115 15.7025L9.36603 16.0804L9.12896 16.3504L8.70749 16.7823L8.49676 16.9712L8.31237 17.1332H8.25969V17.1872L8.04896 17.3761L7.73286 17.7L7.68018 17.6731L9.26066 16.0534L9.36603 15.8915L9.57676 15.7025L9.73481 15.5405L9.76115 13.3Z" fill="#050903"/>
<path d="M6.81953 13.3H6.96016V14.5503L6.90391 14.6946L6.73516 14.7427L6.22891 14.7667H5.21641L5.16016 14.7427V14.6705L6.79141 14.6465L6.81953 13.3Z" fill="#040A03"/>
<path d="M10.103 16.6001L10.2 16.626V16.6777L10.0059 16.8589L8.18566 18.8001H8.04004L8.16139 18.6966L8.76813 18.0495L8.93802 17.8425L9.18071 17.5836L9.3506 17.3766L9.9088 16.7813L10.103 16.6001Z" fill="#060E06"/>
<path d="M19.174 7.43335H19.2V7.74023L17.1441 9.94422L17.04 10L17.1962 9.80473L17.4304 9.49784L17.6126 9.27465H17.6646L17.7167 9.16306L17.9769 8.85618H18.029V8.80038L18.2371 8.60509L18.9398 7.85183L19.122 7.54494L19.174 7.43335Z" fill="#040903"/>
<path d="M5.3077 5.2334H6.60606L6.96016 5.25744V6.67602L6.84212 6.70007V5.32957L5.16016 5.30553V5.25744L5.3077 5.2334Z" fill="#040802"/>
<path d="M1.22789 3.7666H3.47096L4.0802 3.79481L4.0525 3.85122L3.3602 3.87942H1.47712L1.25558 3.93583L1.22789 4.49993H1.2002V3.79481L1.22789 3.7666Z" fill="#073B30"/>
<path d="M17.04 10L17.1522 10.0535L17.9377 10.8021L18.078 10.9625L18.3024 11.1497L19.2 12.0052V12.5667H19.172L19.1159 12.1122L18.9195 11.8983L17.4889 10.5347L17.2925 10.3208L17.2645 10.2406L17.1522 10.1872L17.04 10.0535V10Z" fill="#121811"/>
<path d="M8.04004 3.0332L8.15254 3.07976L8.43379 3.28929L8.85566 3.63849L8.91191 3.66177V3.70834L9.02441 3.7549L9.36191 4.03426L9.55879 4.2205L9.81191 4.47659L9.84004 4.75595V5.57077L9.78379 5.96654H9.75566L9.72754 4.49987L9.64316 4.38347L8.04004 3.05648V3.0332Z" fill="#050C04"/>
<path d="M10.7401 13.3L10.9201 13.3777V15.5H10.7401L10.5601 15.2153V13.3518L10.7401 13.3Z" fill="#040802"/>
<path d="M4.38559 10.7334H4.44014L4.38559 10.8445L2.72195 12.539L2.64014 12.5667L2.69468 12.4278L2.80377 12.289H2.85832L2.91286 12.1778L3.59468 11.4834L3.78559 11.2612L3.94923 11.1223L4.08559 10.9556L4.19468 10.8445H4.2765L4.30377 10.7612L4.38559 10.7334Z" fill="#081008"/>
<path d="M15.96 10.7334L16.0658 10.7873L16.6482 11.3805L16.9394 11.6231L17.1247 11.8118L17.2041 11.8658V11.9197L17.31 11.9736L17.6011 12.2702L17.76 12.5128L17.7335 12.5667L17.5217 12.378L17.3364 12.1893L17.1511 11.9736L16.7276 11.5692L15.96 10.7873V10.7334Z" fill="#0F160E"/>
<path d="M5.16016 4.1333H6.84939L8.04016 5.04292V5.2333H8.01246L7.98477 5.06407L7.90169 5.04292L7.81862 4.93715L7.37554 4.61984L7.12631 4.4083L7.01554 4.34484V4.30253L6.794 4.21792L6.35093 4.19676L5.29862 4.17561L5.16016 4.15445V4.1333Z" fill="#060A04"/>
<path d="M6.6001 10.7334H6.8881L6.9601 11.4667V11.8858L6.8881 12.2001L6.6001 12.1739V10.7334Z" fill="#040A03"/>
<path d="M12.6405 2.66675H12.7199L12.667 2.75177L11.714 3.51699L11.5817 3.64453L11.3699 3.79332L10.9729 4.13341H10.9199L10.9729 4.02713L11.1317 3.87834L11.3435 3.72955L11.7405 3.43197L11.8729 3.28317L12.0052 3.17689L12.4287 2.81554L12.6405 2.66675Z" fill="#0F130D"/>
<path d="M5.03048 12.2H5.16008L5.03048 12.3833L4.90088 12.5142L4.33928 13.1952L4.18808 13.4309L4.12328 13.6666H4.10168L4.08008 13.3785L4.59848 12.75L4.74968 12.5404L4.87928 12.4095L5.03048 12.2Z" fill="#0E120C"/>
<path d="M8.04004 1.19995L8.13478 1.22507L8.86899 2.0036L9.01109 2.12917L9.17688 2.33009L9.34267 2.50589L9.53214 2.68169L9.72162 2.8826V2.93283H9.76899V2.98306L9.84004 3.00817L9.79267 3.03328L9.6032 2.85749L9.22425 2.45566L9.03478 2.27986L8.86899 2.12917L8.75057 1.97849L8.65583 1.90315V1.85292H8.60846L8.49004 1.72735V1.67712L8.3953 1.62689L8.22951 1.45109L8.06372 1.30041L8.04004 1.19995Z" fill="#131712"/>
<path d="M13.6044 4.1333H15.2397L15.2129 4.17644L13.6848 4.19801L13.4436 4.32742L13.2291 4.49997L13.0414 4.67252L12.8538 4.8235L12.7197 4.86663L12.8806 4.71565L13.6044 4.1333Z" fill="#040802"/>
<path d="M6.6001 7.80005L6.7801 7.85646L6.9601 7.80005V9.23851L6.6001 9.26672V7.80005Z" fill="#040802"/>
<path d="M3.0002 10.3667V10.4422L1.88843 11.4991L1.70314 11.7004L1.30608 12.0778L1.25314 12.1785L1.22667 12.9334H1.2002V12.0526L1.41196 11.8765L3.0002 10.3667Z" fill="#040802"/>
<path d="M13.5839 7.80005L13.7999 7.82578L13.7279 9.26672L13.4399 9.24098V8.7521L13.5119 7.87724L13.5839 7.80005Z" fill="#040802"/>
<path d="M4.08008 6.69995L4.10125 6.74578L4.18596 6.79162L4.39773 6.99787L4.54596 7.15828V7.20412L4.63067 7.24995L4.73655 7.38745L4.80008 7.43328V7.47912L4.88478 7.52495L5.0542 7.68537L5.1389 7.7312L5.16008 7.79995H5.03302L4.08008 6.7687V6.69995Z" fill="#050D05"/>
<path d="M10.2002 16.6001L10.3802 16.7518L10.6116 16.9794L10.8173 17.1564L11.1002 17.4346L11.2802 17.6369L11.6402 17.9909L11.6145 18.0668L10.8688 17.3334L10.6888 17.1311L10.4831 16.9541L10.2259 16.7012L10.2002 16.6001Z" fill="#1A211A"/>
<path d="M17.7099 7.43335H17.7602L17.7099 7.56126L17.5592 7.76591H17.509V7.81707L17.1574 8.09847L17.0067 8.27754L16.8058 8.45661L16.6802 8.53335L16.7304 8.43102L17.7099 7.43335Z" fill="#081109"/>
<path d="M11.9515 1.56665L12.0002 1.59176L11.7813 1.81779L11.7083 1.91825H11.6597L11.6353 1.99359L11.4407 2.16939L10.5164 3.12373L10.3461 3.32464L10.2488 3.39998L10.2002 3.37487L10.2245 3.32464L10.2975 3.29953L10.4678 3.09861L11.9515 1.56665Z" fill="#050C04"/>
<path d="M9.47998 4.5H9.71998L9.83998 4.775V5.57708L9.59998 5.96667H9.47998V4.5Z" fill="#040802"/>
<path d="M2.64014 7.43335L2.80814 7.58335L3.72014 8.53335H3.64814L3.26414 8.15835L3.09614 8.00835L2.92814 7.80835L2.71214 7.58335L2.64014 7.48335V7.43335Z" fill="#040802"/>
<path d="M11.6401 16.2334L11.7274 16.2778L12.3601 16.9223V16.9667L12.251 16.9223L12.142 16.8334V16.789L12.0547 16.7667L11.9238 16.5667L11.662 16.3001L11.6401 16.2334Z" fill="#050F06"/>
<path d="M17.7598 12.5667L17.9398 12.6242L18.1198 13.0843L17.8498 14.0333H17.7598V12.5667Z" fill="#040802"/>
<path d="M1.56006 8.16675L1.77919 8.35398L1.99832 8.57242L2.24875 8.79086L2.65571 9.19654L2.87484 9.44618L3.00006 9.571L2.96875 9.63341L1.56006 8.22916V8.16675Z" fill="#040802"/>
<path d="M2.95088 10.3667H3.0002L2.95088 10.4658L2.87691 10.5401L2.82759 10.5153L2.95088 10.3667ZM2.60567 10.7135L2.65499 10.7383L2.60567 10.7631V10.7135ZM2.55636 10.7631L2.60567 10.7879L2.55636 10.8126V10.7631ZM2.50704 10.8126L2.55636 10.8374L2.50704 10.8622V10.8126ZM1.91526 11.4072L1.96458 11.432L1.91526 11.4568V11.4072ZM1.86595 11.4568L1.91526 11.4816L1.76732 11.6054L1.81663 11.5063L1.86595 11.4568ZM1.3728 11.9523L1.42211 11.9771L1.3728 12.0018V11.9523ZM1.32348 12.0018L1.3728 12.0266L1.2002 12.2V12.1257L1.32348 12.0018Z" fill="#242923"/>
<path d="M4.10579 18.0667H4.13151V18.347L4.10579 18.6274L4.18294 18.649V18.6921L4.44008 18.7784V18.8H4.10579L4.08008 18.7784V18.0882L4.10579 18.0667Z" fill="#040802"/>
<path d="M12 18.4333L12.4725 18.6667L12.675 18.7333L13.08 18.7667V18.8H12.3375L12.2363 18.7333V18.6667L12.1013 18.6L12 18.5V18.4333Z" fill="#080E07"/>
<path d="M4.08008 1.19995H4.44008V1.21741L4.27392 1.23487L4.21854 1.28725H4.16316L4.10777 1.56662H4.08008V1.19995Z" fill="#040802"/>
<path d="M16.2872 6.69995H16.32V6.86495L15.96 7.06662V7.01162L16.1236 6.86495L16.2872 6.69995Z" fill="#040802"/>
<path d="M17.7599 7.43335V7.54335L17.6652 7.80002H17.6273V7.87335L17.4378 8.16668L17.3999 8.13002L17.7599 7.43335Z" fill="#040802"/>
<path d="M16.59 8.8999L16.68 8.92435L16.59 8.99768H16.5L16.455 9.09546L16.275 9.19324L16.05 9.26657L15.96 9.24212L16.59 8.8999Z" fill="#040802"/>
<path d="M13.0797 4.5V4.56471L12.8256 4.82353L12.7197 4.86667L12.8468 4.71569L13.0586 4.52157L13.0797 4.5Z" fill="#040A03"/>
<path d="M10.5122 3.0332L10.5602 3.05939L10.2962 3.37368L10.2482 3.39987L10.2002 3.37368L10.2242 3.3213L10.2962 3.29511L10.4642 3.08558L10.5122 3.0332Z" fill="#050F06"/>
<path d="M12.5039 1.19995H12.7199L12.6479 1.29162L12.4079 1.56662L12.3599 1.52078L12.5039 1.19995Z" fill="#040802"/>
<path d="M9.47998 10.3667H9.62398L9.83998 10.6967L9.47998 10.7334V10.3667Z" fill="#040802"/>
<path d="M15.4922 7.43335L15.6002 7.47002L15.3122 7.80002H15.2402L15.2762 7.65335L15.4562 7.47002L15.4922 7.43335Z" fill="#0C110B"/>
<path d="M11.9521 1.56665L12.0001 1.59284L11.7841 1.82856L11.7121 1.93332L11.6401 1.90713L11.9521 1.56665Z" fill="#040802"/>
</svg>
