<svg width="30" height="30" viewBox="0 0 30 30" fill="none" xmlns="http://www.w3.org/2000/svg">
<path d="M22.7366 22.0591L21.5388 23.3582L21.2718 23.6155L20.596 24.1552L20.3233 24.3222L19.925 24.5286L19.4014 24.8389L19.0576 24.9863L18.73 25.0839L18.4242 25.1579L18.2057 25.2016L17.8723 25.2089L17.5169 25.1756L17.2927 25.129L16.8819 24.8981L16.7394 24.795L16.7339 24.7688L16.8863 24.6034L16.9572 24.5587L17.0879 24.417L17.3937 24.343L17.5793 24.2706L17.978 24.1924L18.2727 24.0661L18.573 23.9659L18.813 23.8344L19.2982 23.4693L19.5871 23.2525L20.0178 22.9465L20.3503 22.6825L20.5192 22.5315L20.6934 22.3426L20.7968 22.1983L21.2323 21.7259L21.4499 21.4255L21.787 20.931L22.3088 20.1075L22.5317 19.7691L22.7597 19.3286L22.9059 18.9445L23.0253 18.6863L23.2204 18.217L23.3988 17.6692L23.4741 17.3299L23.4896 17.0876L23.5383 16.9382L23.6088 16.7651L23.6403 16.4088L23.6614 16.1927L23.6663 16.0264L23.6931 15.9006L23.7418 15.7512L23.7133 15.4278L23.718 15.1973L23.7117 14.9786L23.7161 14.6839L23.6766 14.3082L23.665 14.1275L23.6643 13.935L23.6198 13.7255L23.5645 13.5279L23.5362 13.2687L23.4971 13.0212L23.4142 12.7569L23.353 12.4689L23.3359 12.262L23.2367 12.0475L23.1923 11.838L23.0873 11.5331L22.966 11.2139L22.8223 10.7899L22.723 10.5112L22.5356 10.0702L22.3595 9.74584L22.189 9.44763L22.0296 9.20178L21.7107 8.6459L21.3205 8.07054L20.9802 7.66663L20.9033 7.55679L20.4261 7.07591L19.9655 6.67357L19.5492 6.4165L19.0287 6.04703L18.7713 5.90747L18.3608 5.74074L17.6384 5.49351L17.157 5.37147L16.8178 5.2884L16.5771 5.22738L16.3802 5.18329L16.3473 5.15455L16.3255 5.17817L16.1177 5.14589L15.7841 5.089L15.4945 5.11321L15.2869 5.14509L15.0846 5.13899L14.795 5.1632L14.6039 5.20946L14.3419 5.3004L14.0687 5.33898L13.5229 5.54448L13.3373 5.61691L13.0481 5.76946L12.5025 6.03913L12.0825 6.26923L11.848 6.4269L11.2268 6.97175L10.9217 7.23827L10.6875 7.4601L10.0994 8.09786L9.7674 8.49016L9.50627 8.83778L9.06003 9.38617L8.88625 9.70347L8.83759 9.85287L8.76227 10.1922L8.62184 10.6666L8.5514 10.8396L8.41097 11.314L8.23255 11.8618L8.05968 12.4358L7.97903 12.8131L7.90371 13.1525L7.78575 13.7958L7.76511 14.1402L7.70136 14.6603L7.6805 14.9406L7.66008 15.3492L7.63343 15.5392L7.63967 15.7578L7.64081 16.0787L7.64705 16.2974L7.6424 16.5279L7.66509 16.7609L7.70446 17.0725L7.71649 17.3816L7.78319 17.6957L7.79499 17.9406L7.84479 18.112L7.91104 18.2979L7.94462 18.5191L7.96708 18.688L8.16491 18.9888L8.25294 19.151L8.31942 19.4009L8.46281 19.7608L8.52905 19.9466L8.79847 20.3952L8.92495 20.6123L9.15035 20.9798L9.37552 21.2831L9.69939 21.6727L9.83653 21.8138L10.5109 22.4029L10.9712 22.7411L11.7274 23.2738L12.2422 23.5529L12.494 23.6663L13.1946 23.9371L13.4002 24.1924L13.6847 24.343L14.0075 24.6034L14.245 24.6745L14.7226 24.738L14.8704 24.7688L15.117 24.795L15.2426 24.7688L15.3839 24.7835L15.3841 24.8477L15.2426 25.0012L15.117 25.0408L14.9967 25.0424L14.6745 25.102L14.434 25.1052L14.4011 25.0764L14.3246 25.0949L14.0075 25.0524L13.6847 24.9837L13.4003 24.9058L13.0393 24.8463L12.8095 24.7735L12.5741 24.6745L12.0102 24.4164L11.4572 24.1465L10.9862 23.8844L10.5206 23.5842L10.0385 23.2696L9.57814 22.9315L8.82152 22.2705L8.14691 21.6172L7.73525 21.1296L7.45517 20.757L7.18576 20.3084L6.90523 19.8074L6.71249 19.4045L6.61868 19.1519L6.53598 18.9517L6.45885 18.7777L6.39237 18.5278L6.30945 18.2634L6.17139 17.8656L6.10492 17.6156L6.07689 17.4205L6.04309 17.1351L6.03151 16.9544L6.00326 16.6952L5.99124 16.3861L6.02299 16.094L5.98896 15.7445L6.00427 15.438L6.00915 15.2716L5.99179 15.0006L5.94777 14.9195L5.74064 15.0797L5.66396 15.0341L5.60905 14.9648L5.64127 14.801L5.68993 14.6516L5.59612 14.3991L5.47519 14.2081L5.35983 14.0434L5.36448 13.8129L5.32534 13.5654L5.36311 13.4278L5.4931 13.0936L5.44863 12.8842L5.53507 12.5972L5.62706 12.3364L5.75195 12.1043L5.87105 11.7819L5.96815 11.4189L6.13614 11.0113L6.40237 10.5615L6.91372 9.87806L7.39219 9.1659L7.7402 8.65963L8.01731 8.19804L8.33289 7.79138L8.40356 7.68252L8.89892 7.11307L9.59586 6.35721L9.92277 6.06707L10.5168 5.58383L11.1276 5.17914L11.5203 4.94647L11.6621 4.85711L12.3224 4.55969L12.9447 4.33569L13.0538 4.28175L13.4143 4.21286L13.8512 4.12547L14.0862 4.09614L14.3649 4.08374L14.6709 4.0739L14.895 4.05638L15.1354 4.05323L15.283 4.05422L15.5128 4.12704L15.7369 4.10953L16.0705 4.16642L16.2947 4.21307L16.683 4.27507L17.1042 4.36582L17.6623 4.53353L17.8701 4.56581L18.0453 4.63352L18.3849 4.84493L18.8668 5.09531L19.3322 5.33132L19.6716 5.47856L19.9619 5.64686L20.1315 5.68839L20.4053 5.84232L20.608 5.97676L20.789 6.13482L21.3375 6.69936L21.9192 7.35681L22.1882 7.67706L22.4518 8.03531L22.7982 8.59375L22.9907 8.93251L23.1445 9.15218L23.3205 9.47657L23.5188 9.90568L23.6949 10.2301L23.7776 10.4303L23.9265 10.8163L24.0697 11.1119L24.2126 11.3434L24.29 11.5816L24.428 11.9794L24.5218 12.2319L24.5501 12.4912L24.6495 12.7699L24.7102 12.9295L24.7382 13.1246L24.7996 13.4767L24.8382 13.5958L24.85 13.8407L24.9112 14.1287L24.9394 14.3879L24.9239 14.6302L24.9739 14.8658L24.9915 15.2011L24.9653 15.5193L24.9716 15.738L24.962 16.1349L24.9572 16.3012L24.9201 16.6313L24.9314 16.7478L24.8839 17.2181L24.7926 17.6714L24.7115 17.9204L24.6417 18.2859L24.4468 18.8193L24.3493 19.054L24.2631 19.4051L24.1331 19.7394L23.8618 20.2913L23.4706 20.9732L23.2044 21.4229L22.7366 22.0591Z" fill="#052F26"/>
<path d="M15.2056 10.9092H15.3708L15.6186 10.9181L15.7838 10.9448L16.004 11.0072L16.3619 11.132L16.5914 11.2301L16.8483 11.3549L17.0686 11.4797L17.2521 11.5866L17.4081 11.6758L17.6651 11.8273L17.8211 11.9254L17.9588 12.0145L18.0046 12.0501L18.0138 12.0769L17.9588 12.2195L17.8028 12.585L17.6467 12.9415L17.5366 13.1733L17.4632 13.3337L17.4357 13.3694L17.298 13.405L16.9217 13.4763L16.3711 13.5655L15.7287 13.6814L15.3708 13.7527L14.9303 13.8507L14.6183 13.9399L14.4347 14.0023L14.2787 14.0825L14.242 14.1271L14.1961 14.2964L14.1594 14.6441L14.1411 14.7243H14.1135L14.1043 14.7064L14.0952 14.6173L14.086 14.3856L14.0676 14.1894L14.0034 14.2162L13.8657 14.2875L13.7097 14.3945L13.618 14.4747L13.5445 14.5549L13.5354 14.5727V14.6262L13.5812 14.7064L13.6914 14.8312L14.7926 15.9009L14.8569 15.9722L14.9578 16.0703L15.0221 16.1416L15.1505 16.2753L15.2148 16.3466L15.2974 16.4357L15.38 16.5338L15.4809 16.6586L15.6094 16.819L15.7287 16.9795L15.8755 17.1845L16.004 17.3806L16.1141 17.5499L16.2335 17.755L16.3252 17.9154L16.4629 18.1828L16.5547 18.4146L16.674 18.7355L16.7566 19.0118L16.8024 19.199L16.8483 19.511L16.8667 19.716V20.545L16.8483 20.9015L16.8116 21.2313L16.7749 21.4363L16.6372 22.0068L16.4812 22.5595L16.3344 23.0319L16.2059 23.3974L16.105 23.6291L15.9581 23.9233L15.8205 24.1729L15.7379 24.3155L15.6094 24.5294L15.4534 24.7879L15.3616 24.9305L15.2515 24.8771L15.1138 25.0821L14.9098 24.8771L14.7905 25.0286L14.717 25.091L14.7079 25.0553L14.7905 24.9127L14.8914 24.7523L15.0679 24.9751L15.1505 24.8325L15.2515 24.8771L15.3433 24.7077L15.5085 24.3868L15.6278 24.1461L15.7654 23.8342L15.9031 23.4865L16.0316 23.1032L16.1417 22.6754L16.1967 22.4169L16.2335 22.1584L16.2518 21.9623L16.261 21.8018L16.2702 21.4007V21.1422L16.261 20.7232L16.2426 20.4737L16.1967 20.2241L16.1233 19.9656L16.0407 19.716L15.9581 19.5021L15.8664 19.297L15.7379 19.0385L15.6461 18.8692L15.5635 18.7176L15.4442 18.5126L15.2974 18.272L15.1873 18.1204L15.0771 17.9778L14.8936 17.755L14.6366 17.4519L14.5357 17.3271L14.4164 17.1934L14.3062 17.0686L14.2328 16.9795L14.0126 16.7299L13.93 16.6407L13.8474 16.5427L13.7556 16.4446L13.673 16.3466L13.5904 16.2574L13.4528 16.0792L13.3518 15.9455L13.2233 15.7494L13.1407 15.6067L13.0398 15.3928L12.9755 15.2145L12.8838 14.858L12.8471 14.6262L12.8379 14.5282V14.2875L12.8654 14.0825L12.9113 13.9042L12.9755 13.7348L13.0673 13.5655L13.1774 13.4229L13.26 13.3337L13.3243 13.2624L13.3977 13.2L13.5354 13.0931L13.673 13.0039L13.7923 12.9326L14.0126 12.8167L14.0768 12.7811L14.1319 12.3354L14.1686 12.0323L14.2053 11.863L14.2971 11.5955L14.3705 11.4529L14.4347 11.3549L14.5265 11.239L14.6183 11.1409L14.7467 11.0429L14.8752 10.9627L14.9762 10.927L15.0312 10.9181L15.2056 10.9092ZM14.8293 12.2195L14.6825 12.2462L14.5907 12.2997L14.499 12.38L14.4347 12.4869L14.3613 12.6741L14.3888 12.683L14.7192 12.6028L15.0588 12.5137L15.2698 12.4602L15.4534 12.3889L15.4809 12.3621L15.3891 12.3086L15.1964 12.2462L15.0221 12.2195H14.8293Z" fill="#052F26"/>
</svg>
