<svg width="150" height="150" viewBox="0 0 150 150" fill="none" xmlns="http://www.w3.org/2000/svg">
<path d="M63.7766 14.0001C56.3328 13.9992 48.9962 15.8663 42.3768 19.4461C35.7574 23.0259 30.0464 28.2151 25.7183 34.5822C21.3903 40.9494 18.5702 48.3106 17.4927 56.0541C16.4151 63.7976 17.1111 71.6996 19.5228 79.1035C21.9345 86.5073 25.9923 93.1989 31.3588 98.6223C36.7253 104.046 43.2456 108.044 50.3777 110.285C57.5098 112.526 65.0477 112.945 72.3648 111.508C79.6819 110.07 86.567 106.816 92.4476 102.018L123.948 135.124C124.488 135.711 125.133 136.179 125.846 136.501C126.559 136.823 127.326 136.993 128.103 137C128.879 137.007 129.649 136.851 130.367 136.542C131.086 136.233 131.739 135.777 132.288 135.2C132.837 134.623 133.271 133.936 133.565 133.181C133.859 132.426 134.007 131.616 134 130.8C133.993 129.984 133.832 129.177 133.525 128.428C133.219 127.678 132.774 126.999 132.215 126.432L100.726 93.3272C106.094 86.0587 109.414 77.3525 110.308 68.1987C111.203 59.045 109.637 49.8109 105.787 41.5466C101.938 33.2824 95.96 26.3195 88.5334 21.4498C81.1067 16.5801 72.5293 13.999 63.7766 14.0001ZM28.6979 63.1723C28.6979 53.3913 32.3937 44.011 38.9722 37.0948C45.5508 30.1786 54.4732 26.2931 63.7766 26.2931C73.0801 26.2931 82.0025 30.1786 88.581 37.0948C95.1595 44.011 98.8553 53.3913 98.8553 63.1723C98.8553 72.9533 95.1595 82.3336 88.581 89.2498C82.0025 96.166 73.0801 100.051 63.7766 100.051C54.4732 100.051 45.5508 96.166 38.9722 89.2498C32.3937 82.3336 28.6979 72.9533 28.6979 63.1723Z" fill="#E6B373"/>
<path d="M82.25 56.5C82.25 63.182 76.2281 68.7133 68.4688 69.5219V71.5C68.4688 71.9973 68.2613 72.4742 67.8921 72.8258C67.5229 73.1775 67.0221 73.375 66.5 73.375C65.9779 73.375 65.4771 73.1775 65.1079 72.8258C64.7387 72.4742 64.5312 71.9973 64.5312 71.5V67.75C64.5312 67.2527 64.7387 66.7758 65.1079 66.4242C65.4771 66.0725 65.9779 65.875 66.5 65.875C73.0141 65.875 78.3125 61.6703 78.3125 56.5C78.3125 51.3297 73.0141 47.125 66.5 47.125C59.9859 47.125 54.6875 51.3297 54.6875 56.5C54.6875 56.9973 54.4801 57.4742 54.1109 57.8258C53.7417 58.1775 53.2409 58.375 52.7188 58.375C52.1966 58.375 51.6958 58.1775 51.3266 57.8258C50.9574 57.4742 50.75 56.9973 50.75 56.5C50.75 49.2625 57.8154 43.375 66.5 43.375C75.1846 43.375 82.25 49.2625 82.25 56.5ZM66.5 79C65.7212 79 64.96 79.2199 64.3124 79.632C63.6649 80.044 63.1602 80.6297 62.8622 81.3149C62.5642 82.0002 62.4862 82.7542 62.6382 83.4816C62.7901 84.209 63.1651 84.8772 63.7158 85.4016C64.2664 85.9261 64.968 86.2832 65.7318 86.4279C66.4956 86.5726 67.2873 86.4984 68.0068 86.2146C68.7263 85.9307 69.3413 85.4501 69.7739 84.8334C70.2066 84.2167 70.4375 83.4917 70.4375 82.75C70.4375 81.7554 70.0227 80.8016 69.2842 80.0984C68.5458 79.3951 67.5443 79 66.5 79Z" fill="#206357"/>
</svg>
