<svg width="131" height="123" viewBox="0 0 131 123" fill="none" xmlns="http://www.w3.org/2000/svg">
<path d="M90.4412 19.2188H79.5883V15.375C79.5825 13.338 78.8184 11.3862 77.4628 9.94584C76.1071 8.50547 74.2701 7.69358 72.353 7.6875H43.4118C41.4946 7.69358 39.6576 8.50547 38.302 9.94584C36.9463 11.3862 36.1822 13.338 36.1765 15.375V19.2188H25.3236C23.4064 19.2248 21.5694 20.0367 20.2138 21.4771C18.8581 22.9175 18.094 24.8693 18.0883 26.9062V107.625C18.094 109.662 18.8581 111.614 20.2138 113.054C21.5694 114.495 23.4064 115.306 25.3236 115.312H50.6471V107.625H25.3236V26.9062H36.1765V38.4375H79.5883V26.9062H90.4412V46.125H97.6765V26.9062C97.6708 24.8693 96.9067 22.9175 95.551 21.4771C94.1954 20.0367 92.3584 19.2248 90.4412 19.2188ZM72.353 30.75H43.4118V15.375H72.353V30.75Z" fill="#004F3F"/>
<path d="M96.4559 57.3789L110.927 71.4726M54.853 111.992H69.3236L116.353 66.1875C118.272 64.3185 119.35 61.7837 119.35 59.1406C119.35 56.4975 118.272 53.9627 116.353 52.0937C114.434 50.2248 111.831 49.1748 109.118 49.1748C106.404 49.1748 103.801 50.2248 101.882 52.0937L54.853 97.8984V111.992Z" stroke="#E6B373" stroke-width="3.5" stroke-linecap="round" stroke-linejoin="round"/>
<path d="M87.4118 66.1875L69.3236 48.5703L54.853 62.6641L72.9412 80.2812M69.3236 66.1875L63.8971 71.4727M101.882 80.2812L119.971 97.8984L105.5 111.992L87.4118 94.375M101.882 97.8984L96.4559 103.184" stroke="#E6B373" stroke-width="3.5" stroke-linecap="round" stroke-linejoin="round"/>
</svg>
