<svg width="107" height="99" viewBox="0 0 107 99" fill="none" xmlns="http://www.w3.org/2000/svg">
<path d="M43.9309 12.3179C51.4292 12.3179 58.6204 15.1297 63.9225 20.1347C69.2246 25.1398 72.2033 31.9281 72.2033 39.0063C72.2033 45.6169 69.637 51.6936 65.4179 56.3744L66.5923 57.483H70.0285L91.7765 78.0126L85.2521 84.1714L63.5041 63.6419V60.3982L62.3297 59.2896C57.1988 63.422 50.6756 65.693 43.9309 65.6948C36.4326 65.6948 29.2414 62.883 23.9394 57.8779C18.6373 52.8729 15.6586 46.0846 15.6586 39.0063C15.6586 31.9281 18.6373 25.1398 23.9394 20.1347C29.2414 15.1297 36.4326 12.3179 43.9309 12.3179ZM43.9309 20.5297C33.0569 20.5297 24.3578 28.7415 24.3578 39.0063C24.3578 49.2711 33.0569 57.483 43.9309 57.483C54.8049 57.483 63.5041 49.2711 63.5041 39.0063C63.5041 28.7415 54.8049 20.5297 43.9309 20.5297Z" fill="#004F3F"/>
<path d="M8.91664 22.2394H16.3472V15.4952C16.3472 15.1375 16.5038 14.7944 16.7825 14.5415C17.0612 14.2885 17.4392 14.1464 17.8333 14.1464C18.2274 14.1464 18.6054 14.2885 18.8841 14.5415C19.1628 14.7944 19.3194 15.1375 19.3194 15.4952V22.2394H26.75C27.1441 22.2394 27.5221 22.3815 27.8008 22.6344C28.0795 22.8874 28.2361 23.2305 28.2361 23.5882C28.2361 23.9459 28.0795 24.289 27.8008 24.542C27.5221 24.7949 27.1441 24.937 26.75 24.937H19.3194V31.6812C19.3194 32.0389 19.1628 32.382 18.8841 32.635C18.6054 32.8879 18.2274 33.03 17.8333 33.03C17.4392 33.03 17.0612 32.8879 16.7825 32.635C16.5038 32.382 16.3472 32.0389 16.3472 31.6812V24.937H8.91664C8.5225 24.937 8.1445 24.7949 7.8658 24.542C7.5871 24.289 7.43053 23.9459 7.43053 23.5882C7.43053 23.2305 7.5871 22.8874 7.8658 22.6344C8.1445 22.3815 8.5225 22.2394 8.91664 22.2394Z" fill="#E6B373"/>
</svg>
