<svg width="150" height="150" viewBox="0 0 150 150" fill="none" xmlns="http://www.w3.org/2000/svg">
<path d="M26.8544 81.7942H106.102L107.437 82.0505L109.015 82.9476L110.228 84.2292L111.078 86.0234L111.32 87.0487V88.8429L110.835 90.509L109.985 91.9187L109.136 92.8159L108.165 93.4566L106.709 93.9693L105.738 94.0974H102.583L104.524 98.1985L105.859 101.146L107.801 105.504L108.772 107.554H111.199L111.32 104.478L111.806 103.197L112.655 102.171L114.354 101.274H125.519L126.733 101.659L127.825 102.556L128.553 103.838L128.796 104.991V136.005L128.553 137.671L127.704 139.081L126.612 139.85L125.883 140.106L124.427 140.235H71.3932L70.1796 139.978L68.966 139.209L67.3883 137.671L66.4175 136.774L65.0825 135.493L64.1116 134.596L61.6845 132.289L60.3495 131.135L58.5291 129.341L57.5583 128.444L55.8592 126.906L54.0388 125.112L53.068 124.215L51.2476 122.549L49.7913 121.139L48.8204 120.242L47.4854 118.96L46.5146 118.063L44.0874 115.756L42.7524 114.603L40.932 112.809L39.9612 111.912L38.7476 110.758L37.7767 109.861L35.3495 107.554L34.0146 106.401L32.5583 104.863L31.7087 103.453L31.1019 102.043L30.7379 100.377V98.3267L31.2233 96.148L32.1942 94.0974H27.2184L25.6408 93.713L24.3058 92.944L23.2136 91.7906L22.3641 90.2527L22 88.9711V86.9205L22.4854 85.2545L23.335 83.8447L24.3058 82.9476L25.5194 82.1787L26.8544 81.7942ZM45.9078 94.0974L46.3932 94.7382L47.3641 95.6353L51.0049 99.0956L52.5825 100.634L55.4951 103.453L57.9223 105.76L59.5 107.298L60.4709 108.195L62.1699 109.861L63.1408 110.758L65.0825 112.68L65.3252 112.809L65.0825 112.04L63.6262 109.477L60.1068 103.197L59.2573 101.274L58.8932 99.8646V97.0451L59.3786 95.379L59.8641 94.0974H45.9078ZM66.5388 93.9693L65.2039 94.2256L63.9903 95.1227L63.1408 96.148L62.6553 97.5577V99.352L63.1408 100.762L65.0825 104.222L71.2718 115.372L72.4854 117.551L72.7282 117.935L73.3349 117.679L74.7913 116.91L77.5825 115.244L79.4029 114.218L80.0097 113.834L79.0388 111.783L77.4612 108.708L75.8835 105.76L74.4272 102.94L73.2136 100.634L71.2718 96.9169L70.301 95.379L69.2087 94.4819L68.4806 94.0974L67.3883 93.9693H66.5388ZM74.1845 94.0974L75.034 95.8917L76.6116 98.8393L77.7039 101.018L79.2816 103.966L80.8592 107.041L82.4369 109.989L83.2864 111.783L83.8932 111.655L86.9272 109.989V94.0974H74.1845ZM90.932 94.0974L90.8107 94.4819L90.6893 112.296L88.0194 113.834L82.4369 117.038L76.3689 120.498L73.2136 122.292L71.0291 123.574L70.5437 123.318L68.4806 121.267L67.5097 120.37L65.8107 118.704L64.8398 117.807L63.3835 116.397L61.8058 114.859L60.4709 113.578L59.5 112.68L58.0437 111.271L56.466 109.733L55.0097 108.323L54.0388 107.426L52.4612 105.888L49.5485 103.069L48.5777 102.171L47.1214 100.762L45.9078 99.6083L44.3301 98.0704L41.9029 95.7635L40.6893 94.9946L39.9612 94.7382H38.0194L36.8058 95.2509L35.7136 96.148L34.9854 97.4296L34.6214 98.8393V99.9927L35.1068 101.531L35.9563 102.684L37.534 104.222L38.5049 105.119L39.7184 106.273L40.6893 107.17L41.9029 108.323L42.8738 109.22L44.0874 110.374L45.0583 111.271L46.2718 112.424L47.9709 113.962L49.5485 115.5L50.5194 116.397L51.733 117.551L52.7039 118.448L53.9175 119.601L54.8883 120.498L56.1019 121.652L57.0728 122.549L58.2864 123.702L59.2573 124.599L60.4709 125.753L61.4417 126.65L62.6553 127.803L63.6262 128.7L64.9612 129.982L66.2961 131.135L68.2379 133.058L69.5728 134.211L71.3932 136.005L71.6359 136.134H111.32V111.783L106.345 111.655L105.374 109.605L103.068 104.606L101.733 101.659L99.6699 97.1733L98.335 94.2256L98.2136 94.0974H90.932Z" fill="#206357"/>
<path d="M65.9319 29.5054H67.2668L68.4804 29.8898L69.4513 30.6588L70.1794 31.8122L70.9076 33.8628L73.6989 42.5776L74.3057 44.2436L87.5338 44.3718L88.5047 44.6281L89.7183 45.3971L90.4464 46.4223L90.9319 47.7039V49.2418L90.4464 50.5234L89.7183 51.5487L88.0193 52.8303L84.9853 55.009L79.7668 58.8537L79.16 59.1101L79.7668 61.2888L81.5872 66.9278L83.0435 71.4133L83.1649 72.0541V73.0794L82.6794 74.4891L82.194 75.2581L81.3445 76.027L80.2523 76.5397L78.796 76.6678L77.5824 76.2834L76.126 75.3862L74.3057 73.9765L71.9998 72.3104L70.0581 70.9007L67.995 69.3628L66.9027 68.5938L66.1746 68.722L64.4756 70.0036L62.1697 71.6696L56.5872 75.7707L55.1309 76.5397H52.9464L51.7328 75.8989L51.126 75.3862L50.3979 74.1047L50.1552 73.3357V72.0541L50.6406 70.1317L52.461 64.6209L53.796 60.3917L54.0387 59.2382L49.1843 55.6498L45.3008 52.8303L43.9659 51.805L43.1163 51.0361L42.5095 49.7545L42.3882 49.37V47.7039L42.8736 46.2942L43.7231 45.2689L45.0581 44.5L45.5435 44.3718L58.893 44.2436L59.2571 43.6028L60.5921 39.3736L62.2911 34.1191L63.1406 31.6841L63.8688 30.6588L64.8396 29.8898L65.9319 29.5054Z" fill="#CB9B5F"/>
<path d="M95.3009 21.5596H96.1504L97.1213 22.2004L97.6067 22.9693L97.7281 23.9946L97.1213 25.148L88.1407 34.6318L87.1698 35.1444L86.0776 35.0162L85.3495 34.5036L84.9854 33.991L84.864 33.6065V32.4531L85.5922 31.2996L86.9271 29.8899H87.1698L87.4126 29.3773H87.6553L87.898 28.8646H88.1407L88.3834 28.352H88.6261L88.8689 27.8394L89.8397 26.8141H90.0825L90.3252 26.3014H90.5679L90.8106 25.7888H91.0533L91.2961 25.2762H91.5388L91.7815 24.7635L94.0873 22.3285L94.9368 21.6877L95.3009 21.5596Z" fill="#CB9B5F"/>
<path d="M37.6553 21.5596H38.5048L39.4757 22.2004L48.5776 31.8123L48.9417 32.5812V33.4783L48.4563 34.5036L47.7281 35.0162L46.7572 35.1444L45.9077 34.7599L44.9369 33.8628L36.4417 24.8917L36.0776 24.1227V23.2256L36.5631 22.2004L37.2912 21.6877L37.6553 21.5596Z" fill="#CB9B5F"/>
<path d="M66.0534 9H67.7524L68.602 9.89711L68.8447 10.5379V22.713L68.4806 23.6101L67.8738 24.1227L67.6311 24.2509H66.1748L65.4466 23.7383L65.0825 23.2256L64.9612 22.8412V10.4097L65.4466 9.64079L66.0534 9Z" fill="#CB9B5F"/>
</svg>
