<svg width="98" height="66" viewBox="0 0 98 66" fill="none" xmlns="http://www.w3.org/2000/svg">
<g opacity="0.75">
<path opacity="0.2" d="M45.544 11.8674L77.2687 6.46736C77.6157 6.41067 77.9656 6.38232 78.3184 6.38232C81.7927 6.38232 84.5817 9.20565 84.5817 12.654V54.264C84.5817 57.3255 82.3653 59.9617 79.3203 60.4549L45.8997 65.8805C45.641 65.924 45.3765 65.9211 45.1189 65.872L11.9498 60.4847C10.4291 60.2379 9.0471 59.4698 8.05016 58.3173C7.05322 57.1648 6.50608 55.7028 6.50623 54.1918V12.8071C6.50622 11.8774 6.71356 10.9589 7.11373 10.116C7.51389 9.27309 8.0972 8.52614 8.8228 7.92745C9.54841 7.32877 10.3988 6.89282 11.3143 6.65016C12.2298 6.40749 13.1884 6.36397 14.1229 6.52264L45.544 11.8674Z" fill="#004F3F"/>
<path fill-rule="evenodd" clip-rule="evenodd" d="M41.5535 5.54876L7.56465 0.0849485C6.63291 -0.0656318 5.6789 -0.0155865 4.76887 0.231609C3.85884 0.478805 3.01461 0.917226 2.29481 1.51642C1.57502 2.11562 0.9969 2.86123 0.600618 3.70148C0.204335 4.54172 -0.000614583 5.45645 1.38433e-06 6.38215V47.7881C-5.02536e-05 49.3087 0.554118 50.7793 1.56258 51.9347C2.57105 53.0901 3.96745 53.8543 5.49999 54.0895L40.8725 59.5108C41.1818 59.5581 41.4979 59.5391 41.799 59.4553C42.1002 59.3715 42.3792 59.2247 42.617 59.0252C42.8548 58.8256 43.0457 58.5779 43.1766 58.2992C43.3075 58.0204 43.3753 57.7172 43.3753 57.4103V7.64499C43.3747 7.14052 43.1912 6.65268 42.8574 6.26866C42.5237 5.88464 42.0615 5.62948 41.5535 5.54876ZM6.8533 4.28167L39.0378 9.45209V54.9229L6.17231 49.8801C5.66193 49.8021 5.1967 49.5481 4.86035 49.1638C4.52399 48.7795 4.3386 48.2902 4.33753 47.7838V6.38215C4.33725 6.07403 4.4053 5.76953 4.53696 5.48974C4.66863 5.20995 4.86076 4.96156 5.10005 4.76177C5.33934 4.56198 5.62007 4.41557 5.9228 4.33267C6.22553 4.24977 6.54303 4.23237 6.8533 4.28167Z" fill="#004F3F"/>
<path fill-rule="evenodd" clip-rule="evenodd" d="M75.9067 0.00415181C75.5536 0.00441343 75.2011 0.0328539 74.8527 0.0891916L40.8595 5.5445C40.3523 5.62613 39.8911 5.88169 39.5583 6.26561C39.2254 6.64954 39.0425 7.13688 39.0421 7.64074V57.4061C39.0421 57.7129 39.1099 58.0162 39.2408 58.2949C39.3717 58.5737 39.5626 58.8213 39.8003 59.0209C40.0381 59.2205 40.3172 59.3672 40.6183 59.4511C40.9194 59.5349 41.2355 59.5538 41.5448 59.5066L76.9174 54.0853C78.4499 53.8501 79.8463 53.0859 80.8548 51.9305C81.8632 50.775 82.4174 49.3044 82.4173 47.7838V6.38214C82.4173 5.54422 82.2489 4.7145 81.9217 3.94041C81.5944 3.16632 81.1148 2.46303 80.5102 1.87072C79.9055 1.27841 79.1878 0.8087 78.3979 0.488426C77.608 0.168152 76.7615 0.00359319 75.9067 0.00415181ZM76.2407 49.8801L43.3752 54.9272V9.45208L75.5597 4.28166C75.87 4.23236 76.1875 4.24976 76.4902 4.33266C76.7929 4.41556 77.0737 4.56197 77.313 4.76176C77.5523 4.96155 77.7444 5.20994 77.876 5.48973C78.0077 5.76952 78.0758 6.07402 78.0755 6.38214V47.7838C78.0744 48.2902 77.889 48.7795 77.5527 49.1638C77.2163 49.5481 76.7511 49.8021 76.2407 49.8801Z" fill="#004F3F"/>
</g>
<path opacity="0.75" d="M67.5535 21.7441C64.3261 21.7438 61.1452 22.4005 58.2752 23.6594C55.4053 24.9183 52.9292 26.7432 51.0527 28.9823C49.1762 31.2215 47.9535 33.8103 47.4863 36.5334C47.0191 39.2566 47.3209 42.0355 48.3665 44.6393C49.4121 47.243 51.1714 49.5963 53.4982 51.5035C55.8249 53.4108 58.6519 54.8169 61.7442 55.6051C64.8364 56.3932 68.1046 56.5406 71.277 56.0349C74.4495 55.5293 77.4346 54.3852 79.9842 52.6978L93.6419 64.3401C93.8757 64.5465 94.1554 64.7112 94.4647 64.8245C94.7739 64.9378 95.1066 64.9974 95.4431 64.9999C95.7797 65.0024 96.1135 64.9477 96.425 64.839C96.7365 64.7303 97.0195 64.5698 97.2575 64.3668C97.4955 64.1639 97.6838 63.9225 97.8112 63.6569C97.9387 63.3913 98.0028 63.1066 97.9999 62.8196C97.997 62.5326 97.927 62.249 97.7942 61.9852C97.6613 61.7215 97.4682 61.483 97.2261 61.2836L83.5736 49.6414C85.9008 47.0852 87.3402 44.0235 87.7281 40.8044C88.116 37.5852 87.4369 34.3379 85.7679 31.4315C84.0989 28.5252 81.5071 26.0766 78.2872 24.364C75.0672 22.6515 71.3484 21.7438 67.5535 21.7441ZM52.3445 39.0367C52.3445 35.597 53.9469 32.2982 56.7991 29.8659C59.6514 27.4337 63.5198 26.0673 67.5535 26.0673C71.5871 26.0673 75.4556 27.4337 78.3078 29.8659C81.16 32.2982 82.7624 35.597 82.7624 39.0367C82.7624 42.4764 81.16 45.7752 78.3078 48.2075C75.4556 50.6397 71.5871 52.0061 67.5535 52.0061C63.5198 52.0061 59.6514 50.6397 56.7991 48.2075C53.9469 45.7752 52.3445 42.4764 52.3445 39.0367Z" fill="#E6B373"/>
</svg>
