<svg width="117" height="123" viewBox="0 0 117 123" fill="none" xmlns="http://www.w3.org/2000/svg">
<path d="M46.7766 6.04513e-05C39.3328 -0.00077563 31.9962 1.86631 25.3768 5.44613C18.7574 9.02594 13.0464 14.2151 8.71831 20.5822C4.39025 26.9494 1.57024 34.3106 0.492671 42.0541C-0.584902 49.7976 0.111089 57.6997 2.52279 65.1035C4.9345 72.5073 8.99226 79.1989 14.3588 84.6223C19.7253 90.0457 26.2456 94.0441 33.3777 96.2852C40.5098 98.5263 48.0477 98.9453 55.3648 97.5075C62.6819 96.0697 69.567 92.8165 75.4476 88.0184L106.948 121.124C107.488 121.711 108.133 122.179 108.846 122.501C109.559 122.823 110.326 122.993 111.103 123C111.879 123.007 112.649 122.851 113.367 122.542C114.086 122.233 114.739 121.777 115.288 121.2C115.837 120.623 116.271 119.936 116.565 119.181C116.859 118.426 117.007 117.616 117 116.8C116.993 115.984 116.832 115.177 116.525 114.428C116.219 113.678 115.774 112.999 115.215 112.432L83.7262 79.3272C89.0938 72.0587 92.4137 63.3525 93.3084 54.1987C94.2031 45.045 92.6367 35.8109 88.7873 27.5466C84.9379 19.2824 78.96 12.3195 71.5334 7.44981C64.1067 2.58012 55.5293 -0.000962147 46.7766 6.04513e-05ZM11.6979 49.1723C11.6979 39.3913 15.3937 30.011 21.9722 23.0948C28.5508 16.1786 37.4732 12.2931 46.7766 12.2931C56.0801 12.2931 65.0025 16.1786 71.581 23.0948C78.1595 30.011 81.8553 39.3913 81.8553 49.1723C81.8553 58.9533 78.1595 68.3336 71.581 75.2498C65.0025 82.166 56.0801 86.0515 46.7766 86.0515C37.4732 86.0515 28.5508 82.166 21.9722 75.2498C15.3937 68.3336 11.6979 58.9533 11.6979 49.1723Z" fill="#E6B373"/>
<path d="M65.25 42.5C65.25 49.182 59.2281 54.7133 51.4688 55.5219V57.5C51.4688 57.9973 51.2613 58.4742 50.8921 58.8258C50.5229 59.1775 50.0221 59.375 49.5 59.375C48.9779 59.375 48.4771 59.1775 48.1079 58.8258C47.7387 58.4742 47.5312 57.9973 47.5312 57.5V53.75C47.5312 53.2527 47.7387 52.7758 48.1079 52.4242C48.4771 52.0725 48.9779 51.875 49.5 51.875C56.0141 51.875 61.3125 47.6703 61.3125 42.5C61.3125 37.3297 56.0141 33.125 49.5 33.125C42.9859 33.125 37.6875 37.3297 37.6875 42.5C37.6875 42.9973 37.4801 43.4742 37.1109 43.8258C36.7417 44.1775 36.2409 44.375 35.7188 44.375C35.1966 44.375 34.6958 44.1775 34.3266 43.8258C33.9574 43.4742 33.75 42.9973 33.75 42.5C33.75 35.2625 40.8154 29.375 49.5 29.375C58.1846 29.375 65.25 35.2625 65.25 42.5ZM49.5 65C48.7212 65 47.96 65.2199 47.3124 65.632C46.6649 66.044 46.1602 66.6297 45.8622 67.3149C45.5642 68.0002 45.4862 68.7542 45.6382 69.4816C45.7901 70.209 46.1651 70.8772 46.7158 71.4016C47.2664 71.9261 47.968 72.2833 48.7318 72.4279C49.4956 72.5726 50.2873 72.4984 51.0068 72.2145C51.7263 71.9307 52.3413 71.4501 52.7739 70.8334C53.2066 70.2167 53.4375 69.4917 53.4375 68.75C53.4375 67.7554 53.0227 66.8016 52.2842 66.0984C51.5458 65.3951 50.5443 65 49.5 65Z" fill="#206357"/>
</svg>
