<svg width="348" height="349" viewBox="0 0 348 349" fill="none" xmlns="http://www.w3.org/2000/svg">
<path d="M137.874 174.206L141.521 175.001L144.075 177.384L145.534 180.562L145.898 182.946L144.075 182.152L141.521 180.165H139.333L137.874 182.152L137.509 183.343V238.167H163.042L163.771 238.961L164.136 248.098L165.23 251.277L167.054 252.866L169.607 253.263L171.795 252.071L172.89 250.085L173.254 248.496L173.619 230.619H152.829L152.464 229.029V220.29L153.923 213.933L155.747 209.96L159.029 205.988L161.947 203.207L173.619 196.851L175.808 195.261L177.631 192.878L179.455 191.686L180.549 192.083L180.914 238.167H191.127L190.762 184.138L189.668 181.754L187.479 181.357L185.291 182.946L182.373 185.33L182.738 182.549L183.832 178.973L186.75 176.193L188.574 175.398H191.856L194.41 176.59L196.963 179.768L198.057 182.549L198.422 186.522V218.7L198.057 245.715L181.279 246.112L180.549 248.893L179.82 253.263L177.631 257.236L175.078 259.619L171.795 260.811H165.595L161.947 259.222L159.029 255.647L157.57 251.674L156.476 246.112L130.944 245.715L130.579 245.318V180.96L132.768 177.384L135.321 175.001L137.874 174.206ZM172.89 205.591L168.513 207.577L164.865 209.96L161.947 213.536L160.124 217.906L159.759 219.495V222.673L160.124 223.07H173.254L173.619 222.673V205.591H172.89Z" fill="#004F3F"/>
<path d="M303.173 29.0039H307.55L309.739 30.593L311.927 33.7711L313.021 36.1548V37.7439L310.833 36.9493L308.645 34.963L306.456 34.5657L304.997 35.7575L304.268 40.1275V92.9644H329.8L330.529 93.7589L330.894 102.102L331.988 105.28L334.177 107.663H336.73L338.554 106.472L340.013 102.896L340.377 100.513V85.019H319.952L319.222 83.8272V75.0872L319.952 70.32L321.775 65.5528L324.329 61.9773L327.247 58.7992L331.988 55.621L338.554 52.4428L342.566 49.662L344.754 46.8811L346.943 46.4838L347.308 47.2783V105.677L345.849 109.65L343.295 113.225L339.648 115.212L337.824 115.609H332.718L329.435 114.417L326.152 111.239L324.329 107.266L323.599 100.513L296.973 100.115L296.608 98.1289L296.973 37.3466L298.432 32.9766L300.985 29.7984L303.173 29.0039ZM339.648 60.3883L334.906 62.3746L330.894 65.1555L327.976 69.5255L326.152 73.8954L326.517 77.0736L326.882 77.4709H338.189L340.377 76.6763L340.742 72.7036L340.377 60.3883H339.648Z" fill="#004F3F"/>
<path d="M214.54 54.0319H215.634L215.999 62.7719V104.088L215.27 108.061L213.446 112.033L210.893 114.417L207.975 115.609H202.503L199.95 114.417L197.397 112.033L195.573 108.061L194.844 102.896L194.479 100.513L184.996 100.115V109.252L184.266 113.225L182.442 117.198L180.254 119.979L176.606 122.362L173.688 123.157L167.488 123.554H152.533L131.743 123.157L132.107 121.171L138.673 115.609L142.32 111.239L143.779 112.033L147.792 114.814L151.804 115.609H171.5L174.783 114.417L176.971 111.636L177.701 109.65V91.7726L176.971 87.4026L174.783 82.6354L173.688 80.649L174.053 79.4572L177.701 76.6763L179.889 73.8954L182.442 69.5255L184.266 68.3336L184.996 71.1145V92.5671H191.196L194.479 92.1699V81.4436L193.02 77.4709L190.467 73.4982V72.7036L194.844 69.9227L199.221 62.7719L200.315 61.5801L201.774 61.9773L202.139 103.691L203.233 107.266L206.516 107.663L207.975 106.074L208.704 101.704V75.0872L207.975 71.9091L206.151 67.9364L204.692 65.95L205.421 64.3609L209.069 61.9773L211.622 58.0046L213.811 54.8265L214.54 54.0319Z" fill="#004F3F"/>
<path d="M250.65 61.9773L252.109 62.3746L252.474 92.5671H260.498L260.863 86.608L262.687 81.8408L265.24 77.4708L268.522 74.2927L273.629 71.1145L282.018 66.3473L285.666 63.1691L287.125 61.9773H288.219L288.583 62.7718L288.948 99.3207L288.219 100.115H252.474L251.744 110.444L250.285 116.006L248.826 119.581L246.638 123.157L244.449 125.938L240.437 128.719L236.79 130.308L233.507 131.102L231.318 130.705L231.683 128.719L237.154 125.541L240.072 122.362L242.261 118.39L244.084 112.431L244.814 108.855L245.179 100.115H224.388L224.023 99.3207V90.5807L225.482 83.8272L227.306 79.8545L230.589 75.8818L233.872 73.1009L241.531 68.7309L245.908 66.3473L249.556 62.7718L250.65 61.9773ZM244.449 75.4845L238.978 77.8681L234.966 81.0463L232.413 85.4162L230.954 88.9917V92.5671L231.318 92.9644H242.99L245.179 92.5671V75.8818L244.449 75.4845ZM280.194 75.8818L275.817 77.8681L272.535 80.2517L269.981 83.4299L268.158 87.4026L267.428 89.7862V92.5671L267.793 92.9644H280.194L281.653 92.1698V75.8818H280.194Z" fill="#004F3F"/>
<path d="M208.327 165H214.531L215.02 165.397L215.184 168.574L215.837 217.412L216 230.912V246H209.143L208.98 244.809L208.327 203.118L208 171.353V165.794L208.327 165Z" fill="#004F3F"/>
<path d="M26.6265 173.014L28.0854 173.412V238.961L25.897 243.728L23.7085 245.715L22.2495 246.112H0.729492L0 245.715V235.386L1.45898 229.029L3.64746 224.659L6.56543 221.084L9.4834 218.303L14.2251 213.536L16.7783 209.96L18.6021 209.166L18.2373 218.7L15.6841 221.879L12.7661 225.057L9.84814 227.838L8.02441 231.81L7.29492 234.988V237.769L18.6021 238.167L20.061 237.372L20.4258 236.18L20.7905 217.509V194.864L20.061 190.892L18.6021 187.713L16.7783 185.33L17.1431 183.741L21.1553 181.357L23.7085 177.384L25.897 173.412L26.6265 173.014Z" fill="#004F3F"/>
<path d="M56.1709 205.59H56.9004L57.2651 213.139L57.6299 237.769L62.7363 238.167H78.0557L79.8794 238.961L79.5146 241.742L78.0557 245.715L57.6299 246.112L57.2651 252.071L55.4414 260.414L53.2529 266.373L50.6997 269.948L47.7817 272.729L43.4048 275.113L40.1221 275.907H36.8394V274.318L41.2163 271.935L43.7695 269.551L46.3228 265.578L48.5112 260.414L49.2407 256.838L49.9702 249.687V225.851L49.2407 221.879L46.6875 218.7L46.3228 217.111L49.6055 214.33L51.4292 212.344L54.7119 206.782L56.1709 205.59Z" fill="#004F3F"/>
<path d="M103.588 199.234L105.776 199.631L107.965 202.412L111.248 208.371L116.719 218.7L119.637 223.865L121.46 228.235L121.825 229.824V234.989L120.366 238.961L118.178 241.742L114.53 244.126L109.424 245.318L106.506 245.715L91.5513 246.112L90.0923 245.715L90.8218 241.742L92.2808 238.564L92.6455 238.167H105.776L110.153 236.975L112.342 235.783L113.436 235.386L114.166 233.399V230.221L111.612 224.659L108.33 218.7L104.682 211.947L103.223 213.933L101.764 216.317H101.035L97.752 209.96L98.1167 207.974L101.035 202.412L102.494 200.029L103.588 199.234Z" fill="#004F3F"/>
<path d="M87.5391 202.81H90.457L92.2808 204.399L94.1045 207.577L97.0225 213.933L99.5757 217.906L108.33 233.797L108.694 235.386L106.506 236.578L102.494 236.975L101.399 236.578L97.752 230.221L94.834 224.659L91.1865 217.906L88.6333 213.933L87.5391 215.125L84.6211 221.481L80.2441 229.427L78.0557 233.797L76.5967 236.578L75.8672 236.975H68.5723L71.1255 231.413L74.7729 224.659L79.5146 215.522L84.6211 205.988L86.0801 203.604L87.5391 202.81Z" fill="#004F3F"/>
<path d="M90.0923 223.865L91.5513 224.66L94.1045 229.03L93.7397 231.413L89.7275 238.564L88.2686 242.537L87.9038 247.701L89.3628 252.866L91.1865 255.249L94.1045 256.838L95.1987 257.236H98.1167L101.764 256.044L103.588 254.455L105.776 248.893L110.153 248.098H112.342L111.977 253.263L110.153 258.03L106.871 262.003L101.764 264.784L100.305 265.181H94.1045L90.0923 263.592L86.4448 261.208L83.8916 258.428L81.3384 252.866L80.6089 250.085V245.318L82.0679 238.961L84.9858 232.208L89.7275 224.262L90.0923 223.865Z" fill="#004F3F"/>
<path d="M297.337 0.797729L299.161 1.59227L301.35 4.77043L303.538 8.34586L307.915 12.3186L307.55 13.9076L305.362 17.4831L304.632 19.8667L303.903 25.4285L299.161 28.6066L298.067 29.7985H297.337L296.973 27.4148V1.195L297.337 0.797729Z" fill="#004F3F"/>
<path d="M130.944 146L132.768 147.192L136.415 153.151L140.062 156.726L141.157 157.521L140.792 159.507L138.604 163.48L137.509 166.658L137.145 171.425L133.132 173.412L131.309 174.603H130.579V146.397L130.944 146Z" fill="#004F3F"/>
<path d="M246.455 310L247.185 310.397L246.455 311.986L240.619 314.37L235.877 315.959L234.418 316.356L235.513 319.932L237.701 323.507L238.431 325.096L238.066 327.48L236.242 330.261L234.783 331.055L228.218 331.453V332.247L231.136 334.631L232.23 336.22L231.865 337.809L230.406 339.795L226.029 342.179L223.111 342.973H220.558L218.37 341.782L216.546 339.795L215.452 337.014V333.836H215.816L216.911 337.809L218.734 339.398L219.829 339.795H224.57L228.947 338.603L230.406 337.412L230.771 336.22L227.488 335.028L225.665 333.439L226.029 331.055L227.853 328.672L228.947 328.274L235.877 327.877L236.972 327.083L236.607 325.494L233.324 321.124L232.595 319.534L232.959 315.959L234.783 313.973L239.89 311.986L246.455 310Z" fill="#004F3F"/>
<path d="M274.723 34.963H277.276L279.1 37.3466V41.3193L278.371 42.9084L278.735 44.4974L280.194 45.6892L279.83 47.2783L277.641 48.0729H275.088L272.535 50.8538L269.252 53.2374L266.699 54.4292L263.416 54.0319L262.322 53.2374V52.0456L269.617 48.8674L272.535 46.8811H273.264L270.711 42.5111V39.7302L272.899 36.1548L274.723 34.963ZM274.358 37.3466L273.264 38.1411V40.5247L274.723 42.5111L276.547 42.1138V39.3329L275.453 37.3466H274.358Z" fill="#004F3F"/>
<path d="M193.75 32.1821H196.303L197.762 33.7711L198.126 34.5657V37.3466L196.667 41.7166L198.856 42.5111L199.221 43.7029L198.126 45.292L193.75 45.6893L190.832 48.8674L187.914 50.8538L185.725 51.6483L182.807 51.251L181.348 50.0592V49.2647L188.278 46.4838L191.926 44.4974H192.655L190.467 41.3193L189.737 39.7302V37.3466L191.561 34.1684L193.75 32.1821ZM192.655 34.963L191.926 35.7575V38.1411L194.114 40.1275L195.208 39.7302L195.573 38.1411L194.479 34.963H192.655Z" fill="#004F3F"/>
<path d="M325.058 29.7985L328.341 30.1957L330.529 31.7848L331.988 34.5657L331.624 38.1411L330.165 40.1275L328.341 41.3193L326.517 41.7166L323.234 40.5248L321.411 38.1411L321.046 36.9493V34.1684L322.14 31.7848L323.964 30.1957L325.058 29.7985Z" fill="#004F3F"/>
<path d="M6.20068 176.193L9.11865 176.59L12.0366 179.371L12.7661 180.96L12.4014 183.741L10.5776 186.522L8.75391 187.713H5.47119L3.28271 186.124L1.82373 183.741L1.45898 181.754L2.91797 178.576L5.10645 176.59L6.20068 176.193Z" fill="#004F3F"/>
<path d="M338.918 30.1957H341.836L344.39 31.7848L345.484 33.7712V37.3466L343.66 40.5248L342.566 41.7166H341.836V42.5111L339.648 41.7166L336.73 39.7302L335.271 38.1411L334.906 34.963L336.365 31.7848L338.918 30.1957Z" fill="#004F3F"/>
<path d="M172.525 175.398L175.808 175.795L177.996 177.384L179.09 179.371V182.549L177.267 185.727L175.808 186.919H172.525L170.701 185.727L168.877 183.343L168.513 180.165L169.972 176.987L172.525 175.398Z" fill="#004F3F"/>
<path d="M5.47119 192.481H9.11865L10.9424 193.672L12.4014 196.453V199.631L10.5776 202.412L8.38916 203.604L5.10645 203.207L2.91797 201.618L1.45898 198.44L1.82373 196.453L3.28271 194.07L5.47119 192.481Z" fill="#004F3F"/>
<path d="M308.827 321.918L311.38 322.315L313.568 325.891L313.933 328.275L312.839 330.261L310.286 330.658L306.638 329.069L305.179 328.672L302.991 330.658L300.073 331.055L299.343 332.645L296.061 336.617L294.602 337.809L291.319 338.206L288.401 337.014V336.22H292.778L295.696 334.631L297.884 332.645L298.249 331.453L296.061 329.864L294.966 328.672L295.331 325.096L296.425 323.11L298.979 322.713L300.073 323.905L300.438 328.672L304.085 327.877L305.179 326.685L307.732 322.713L308.827 321.918ZM296.79 324.699L296.061 325.096L295.696 327.083L296.79 328.275L299.343 328.672L299.708 327.48L298.614 325.494L297.884 324.699H296.79ZM307.732 324.699L307.003 326.288L308.462 327.877L309.556 328.672H311.745L312.109 328.275V326.288L309.921 324.699H307.732Z" fill="#004F3F"/>
<path d="M157.935 175.795H161.218L163.771 177.384L164.865 179.371V182.549L163.406 184.933L161.947 186.522L158.665 186.919L156.841 186.124L154.652 183.343L154.288 180.563L155.747 177.384L157.935 175.795Z" fill="#004F3F"/>
<path d="M115.146 315.959L116.97 316.754L118.064 318.74L117.7 322.315L118.429 327.48L117.7 329.864L115.876 331.055L111.864 330.658L110.04 329.864L107.487 330.261L106.028 330.658H99.4624L96.9092 326.288V324.699L98.3682 325.096L100.192 327.877L101.651 328.274H107.122L108.581 327.877L107.852 325.494L105.298 324.302L105.663 322.713L106.757 321.521H110.405L112.593 323.11L112.958 325.096L111.864 327.083V327.877L112.593 328.274H115.876L116.97 327.877V323.507L116.605 320.329L115.146 317.548V315.959Z" fill="#004F3F"/>
<path d="M164.387 315.562H165.481L165.846 321.918L166.94 326.685L168.399 328.274H171.317L172.776 327.48L173.506 325.891L174.965 326.685L176.059 327.877L177.518 328.274L182.26 327.877L184.083 325.891L184.448 326.288V328.274L188.096 327.877L188.46 327.083H189.555L191.014 329.466L190.649 331.453L188.825 331.055L188.46 330.658L182.989 331.055L180.436 330.658L176.424 331.055L173.506 329.863L170.588 331.055L167.67 330.658L165.481 328.672L164.752 326.288L164.022 319.534V315.959L164.387 315.562Z" fill="#004F3F"/>
<path d="M158.916 319.137L160.74 321.124L161.104 322.315V325.494L160.01 327.877L154.174 329.864L151.986 330.261H143.961L138.49 328.672L135.208 326.685L133.384 324.302L133.019 321.521L134.113 321.918L135.572 324.302L137.031 325.494L141.408 326.685L144.326 327.083H151.256L158.187 326.288L160.01 325.494L159.646 323.507L158.551 319.534L158.916 319.137Z" fill="#004F3F"/>
<path d="M316.851 315.959L318.31 316.754L319.04 325.891L320.134 327.877L320.863 328.274H326.334L328.523 327.083L329.252 326.288L329.617 324.699L327.793 326.288H325.605L324.511 325.494L324.146 321.918L324.875 321.521L325.24 322.315L328.523 323.11L327.793 320.726H324.875L325.97 318.74L326.699 317.945L328.523 318.343L330.347 320.726L331.076 322.713V325.494L329.617 328.672L327.429 330.261L326.334 330.658H320.134L317.945 328.672L317.216 324.699L316.486 316.356L316.851 315.959Z" fill="#004F3F"/>
<path d="M89.2495 328.275L89.6143 329.069L88.1553 331.055L79.4014 331.453L79.7661 332.645L82.6841 335.028L83.4136 335.823V338.206L80.8604 340.59L75.3892 342.974L72.8359 343.371L69.918 342.179L67.7295 339.398L67 335.823L67.7295 335.425L68.8237 338.206L71.7417 339.795H76.8481L80.4956 338.604L82.3193 336.617L77.5776 333.836L77.2129 331.85L78.3071 329.864L80.4956 328.672L89.2495 328.275Z" fill="#004F3F"/>
<path d="M202.686 315.165L204.145 315.959L206.333 318.74L205.968 321.918L206.333 323.904V328.672L205.604 330.261L204.145 331.055H201.591L199.403 329.864L198.309 328.274L196.12 330.658L193.932 331.055L191.743 329.864L190.649 327.083L192.108 327.48L193.202 328.274H195.755L197.579 326.288V320.726L197.214 318.74V315.562H198.673L199.038 316.356L199.403 325.494L200.497 327.877L201.227 328.274H204.145L204.874 327.48L204.509 320.329L203.05 317.548L202.686 315.165Z" fill="#004F3F"/>
<path d="M285.848 324.699H287.671L288.036 325.096V327.877L286.212 331.055L281.471 330.658H278.553L277.823 334.234L274.541 337.412L270.893 337.809L267.975 336.617L266.151 334.234V331.055L267.246 329.466V332.247L268.705 334.234L270.164 335.028H273.811L276.729 333.439L277.458 332.645V330.261L276 326.685V325.494L277.458 325.891L278.917 328.275H281.835L283.294 327.48L284.389 325.494L284.753 327.083L284.389 328.672H285.848V324.699Z" fill="#004F3F"/>
<path d="M20.061 252.866H21.1553L20.7905 254.852L18.9668 257.236L12.7661 260.414L7.29492 262.797H5.83594L6.20068 261.208L9.11865 258.825L18.9668 253.66L20.061 252.866Z" fill="#004F3F"/>
<path d="M98.4814 272.332H99.5757L99.2109 274.318L96.6577 276.702L91.5513 279.483L84.9858 282.264L84.2563 281.866L85.7153 279.483L89.7275 276.702L98.4814 272.332Z" fill="#004F3F"/>
<path d="M340.013 11.9213L340.742 12.3185L340.013 13.9076L338.189 15.4967L333.083 18.2776L329.8 19.8667L326.152 22.2503H325.058L325.423 20.6612L326.517 18.6749L329.435 16.6885L340.013 11.9213Z" fill="#004F3F"/>
<path d="M172.525 157.124H173.254L172.89 158.713L171.066 160.699L158.665 167.453L157.206 167.055L159.394 163.877L164.5 161.096L171.066 157.918L172.525 157.124Z" fill="#004F3F"/>
<path d="M52.8882 187.713H53.9824L53.6177 189.302L51.7939 191.289L45.5933 194.864L40.4868 197.248L38.2983 197.645L39.0278 195.659L40.8516 194.07L48.5112 190.097L52.8882 187.713Z" fill="#004F3F"/>
<path d="M251.926 319.137L254.479 319.932L256.668 323.11L257.397 326.685L256.303 328.672L254.115 329.864H250.467L248.644 328.672L248.279 326.288L251.562 327.48H254.844L255.209 327.083L254.844 324.302L253.021 322.315L250.467 321.124L251.197 319.534L251.926 319.137Z" fill="#004F3F"/>
<path d="M98.7329 331.85L99.0977 332.644L97.6387 335.425L95.0854 337.809L92.5322 338.206L89.6143 337.014V337.809L87.4258 337.412V335.425L88.52 335.028L89.6143 335.823V336.617L93.6265 336.22L96.9092 333.836L98.3682 333.042L98.7329 331.85Z" fill="#004F3F"/>
<path d="M121.347 315.562H122.441L123.9 323.507V327.877L123.171 329.069H122.441L122.077 323.11L121.347 318.74V315.562Z" fill="#004F3F"/>
<path d="M324.146 311.986H327.793L329.617 312.781V314.37L324.875 314.767L323.781 313.973L324.146 311.986Z" fill="#004F3F"/>
<path d="M87.7905 321.521H89.2495L90.3438 323.507L90.7085 325.891L89.979 327.083L87.7905 322.713V321.521Z" fill="#004F3F"/>
<path d="M187.366 317.548L187.731 318.343H188.46V321.124H186.272L185.907 319.534L187.366 317.548Z" fill="#004F3F"/>
<path d="M189.555 317.945L191.014 318.343L191.743 319.535L191.378 321.124L189.919 321.521L189.555 321.124V317.945Z" fill="#004F3F"/>
<path d="M187.731 314.767L189.19 315.165L189.919 316.356L189.555 317.945L187.001 316.754L187.731 314.767Z" fill="#004F3F"/>
<path d="M251.562 315.165H253.385L253.75 316.754L252.656 317.151L251.197 316.356L251.562 315.165Z" fill="#004F3F"/>
<path d="M75.7539 346.549H77.9424L77.5776 348.138L75.7539 347.741V346.549Z" fill="#004F3F"/>
<path d="M73.2007 346.152L74.6597 346.549L75.0244 348.138H73.2007L72.8359 346.946L73.2007 346.152Z" fill="#004F3F"/>
<path d="M171.317 335.823L173.141 336.22L172.776 337.809L171.317 337.412V335.823Z" fill="#004F3F"/>
<path d="M148.338 335.425L149.797 335.823V337.412L147.974 337.014L148.338 335.425Z" fill="#004F3F"/>
<path d="M224.57 346.549L226.394 346.946L226.029 348.138L224.206 347.741L224.57 346.549Z" fill="#004F3F"/>
<path d="M221.288 346.549L223.111 346.946V348.138L221.288 347.741V346.549Z" fill="#004F3F"/>
</svg>
