<svg width="150" height="142" viewBox="0 0 150 142" fill="none" xmlns="http://www.w3.org/2000/svg">
<path d="M26.699 72.7942H105.947L107.282 73.0505L108.859 73.9476L110.073 75.2292L110.922 77.0234L111.165 78.0487V79.8429L110.68 81.509L109.83 82.9187L108.981 83.8159L108.01 84.4566L106.553 84.9693L105.583 85.0974H102.427L104.369 89.1985L105.704 92.1462L107.646 96.5036L108.617 98.5541H111.044L111.165 95.4783L111.65 94.1967L112.5 93.1714L114.199 92.2743H125.364L126.578 92.6588L127.67 93.5559L128.398 94.8375L128.641 95.9909V127.005L128.398 128.671L127.549 130.081L126.456 130.85L125.728 131.106L124.272 131.235H71.2379L70.0243 130.978L68.8107 130.209L67.233 128.671L66.2621 127.774L64.9272 126.493L63.9563 125.596L61.5291 123.289L60.1942 122.135L58.3738 120.341L57.4029 119.444L55.7039 117.906L53.8835 116.112L52.9126 115.215L51.0922 113.549L49.6359 112.139L48.6651 111.242L47.3301 109.96L46.3592 109.063L43.932 106.756L42.5971 105.603L40.7767 103.809L39.8058 102.912L38.5922 101.758L37.6214 100.861L35.1942 98.5541L33.8592 97.4007L32.4029 95.8628L31.5534 94.453L30.9466 93.0433L30.5825 91.3772V89.3267L31.068 87.148L32.0388 85.0974H27.0631L25.4854 84.713L24.1505 83.944L23.0583 82.7906L22.2087 81.2527L21.8447 79.9711V77.9205L22.3301 76.2545L23.1796 74.8447L24.1505 73.9476L25.3641 73.1787L26.699 72.7942ZM45.7524 85.0974L46.2379 85.7382L47.2087 86.6353L50.8495 90.0956L52.4272 91.6335L55.3398 94.453L57.767 96.7599L59.3447 98.2978L60.3155 99.1949L62.0146 100.861L62.9854 101.758L64.9272 103.68L65.1699 103.809L64.9272 103.04L63.4709 100.477L59.9515 94.1967L59.1019 92.2743L58.7379 90.8646V88.0451L59.2233 86.379L59.7087 85.0974H45.7524ZM66.3835 84.9693L65.0485 85.2256L63.835 86.1227L62.9854 87.148L62.5 88.5577V90.352L62.9854 91.7617L64.9272 95.222L71.1165 106.372L72.3301 108.551L72.5728 108.935L73.1796 108.679L74.6359 107.91L77.4272 106.244L79.2476 105.218L79.8544 104.834L78.8835 102.783L77.3058 99.7075L75.7282 96.7599L74.2719 93.9404L73.0583 91.6335L71.1165 87.9169L70.1456 86.379L69.0534 85.4819L68.3252 85.0974L67.233 84.9693H66.3835ZM74.0291 85.0974L74.8786 86.8917L76.4563 89.8393L77.5485 92.018L79.1262 94.9657L80.7039 98.0415L82.2816 100.989L83.1311 102.783L83.7379 102.655L86.7719 100.989V85.0974H74.0291ZM90.7767 85.0974L90.6553 85.4819L90.534 103.296L87.8641 104.834L82.2816 108.038L76.2136 111.498L73.0583 113.292L70.8738 114.574L70.3884 114.318L68.3252 112.267L67.3544 111.37L65.6553 109.704L64.6845 108.807L63.2282 107.397L61.6505 105.859L60.3155 104.578L59.3447 103.68L57.8884 102.271L56.3107 100.733L54.8544 99.3231L53.8835 98.426L52.3058 96.8881L49.3932 94.0686L48.4223 93.1714L46.966 91.7617L45.7524 90.6083L44.1748 89.0704L41.7476 86.7635L40.534 85.9946L39.8058 85.7382H37.8641L36.6505 86.2509L35.5583 87.148L34.8301 88.4296L34.466 89.8393V90.9927L34.9515 92.5307L35.801 93.6841L37.3786 95.222L38.3495 96.1191L39.5631 97.2725L40.534 98.1696L41.7476 99.3231L42.7185 100.22L43.932 101.374L44.9029 102.271L46.1165 103.424L47.8155 104.962L49.3932 106.5L50.3641 107.397L51.5777 108.551L52.5485 109.448L53.7621 110.601L54.733 111.498L55.9466 112.652L56.9175 113.549L58.1311 114.702L59.1019 115.599L60.3155 116.753L61.2864 117.65L62.5 118.803L63.4709 119.7L64.8058 120.982L66.1408 122.135L68.0825 124.058L69.4175 125.211L71.2379 127.005L71.4806 127.134H111.165V102.783L106.189 102.655L105.218 100.605L102.913 95.6065L101.578 92.6588L99.5146 88.1733L98.1796 85.2256L98.0583 85.0974H90.7767Z" fill="#206357"/>
<path d="M65.7767 20.5054H67.1116L68.3252 20.8898L69.2961 21.6588L70.0243 22.8122L70.7524 24.8628L73.5437 33.5776L74.1505 35.2436L87.3786 35.3718L88.3495 35.6281L89.5631 36.3971L90.2913 37.4223L90.7767 38.7039V40.2418L90.2913 41.5234L89.5631 42.5487L87.8641 43.8303L84.8301 46.009L79.6116 49.8537L79.0048 50.1101L79.6116 52.2888L81.432 57.9278L82.8883 62.4133L83.0097 63.0541V64.0794L82.5243 65.4891L82.0388 66.2581L81.1893 67.027L80.0971 67.5397L78.6408 67.6678L77.4272 67.2834L75.9709 66.3862L74.1505 64.9765L71.8447 63.3104L69.9029 61.9007L67.8398 60.3628L66.7476 59.5938L66.0194 59.722L64.3204 61.0036L62.0146 62.6696L56.432 66.7707L54.9757 67.5397H52.7913L51.5777 66.8989L50.9709 66.3862L50.2427 65.1047L50 64.3357V63.0541L50.4854 61.1317L52.3058 55.6209L53.6408 51.3917L53.8835 50.2382L49.0291 46.6498L45.1456 43.8303L43.8107 42.805L42.9612 42.0361L42.3544 40.7545L42.233 40.37V38.7039L42.7184 37.2942L43.568 36.2689L44.9029 35.5L45.3883 35.3718L58.7379 35.2436L59.1019 34.6028L60.4369 30.3736L62.1359 25.1191L62.9854 22.6841L63.7136 21.6588L64.6845 20.8898L65.7767 20.5054Z" fill="#CB9B5F"/>
<path d="M95.1456 12.5596H95.9951L96.966 13.2004L97.4515 13.9693L97.5728 14.9946L96.966 16.148L87.9854 25.6318L87.0146 26.1444L85.9223 26.0162L85.1942 25.5036L84.8301 24.991L84.7087 24.6065V23.4531L85.4369 22.2996L86.7718 20.8899H87.0146L87.2573 20.3773H87.5L87.7427 19.8646H87.9854L88.2282 19.352H88.4709L88.7136 18.8394L89.6845 17.8141H89.9272L90.1699 17.3014H90.4126L90.6553 16.7888H90.8981L91.1408 16.2762H91.3835L91.6262 15.7635L93.932 13.3285L94.7816 12.6877L95.1456 12.5596Z" fill="#CB9B5F"/>
<path d="M37.5 12.5596H38.3495L39.3204 13.2004L48.4223 22.8123L48.7864 23.5812V24.4783L48.301 25.5036L47.5728 26.0162L46.6019 26.1444L45.7524 25.7599L44.7816 24.8628L36.2864 15.8917L35.9223 15.1227V14.2256L36.4078 13.2004L37.1359 12.6877L37.5 12.5596Z" fill="#CB9B5F"/>
<path d="M65.8981 0H67.5971L68.4466 0.897112L68.6893 1.53791V13.713L68.3253 14.6101L67.7185 15.1227L67.4758 15.2509H66.0194L65.2913 14.7383L64.9272 14.2256L64.8058 13.8412V1.40975L65.2913 0.640794L65.8981 0Z" fill="#CB9B5F"/>
</svg>
