<svg width="454" height="506" viewBox="0 0 454 506" fill="none" xmlns="http://www.w3.org/2000/svg">
<path d="M266.652 0.686768H291.016L302.406 2.69914L313.48 5.71769L323.922 9.74243L333.414 14.2703L342.273 19.3012L349.867 24.3321L363.789 35.4001L368.219 39.4249L375.812 46.9713L381.824 53.5115L388.469 61.561L392.898 67.095L396.379 72.1259L398.91 75.6475L402.707 81.1816L408.402 90.2372L410.617 94.262L413.781 99.796L417.262 106.839L421.059 114.386L425.488 124.448L429.602 134.509L432.766 143.062L436.562 154.13L440.676 168.217L444.789 185.322L447.32 197.899L450.168 216.01L452.066 232.612L453.332 250.221L453.648 257.264V288.456L452.699 306.064L451.75 317.132L451.434 318.641H450.801L452.699 323.169L453.648 328.703V332.728L452.699 339.268L450.168 346.814L447.004 352.851L444.473 356.373L442.258 360.398L441.941 363.919L444.789 368.95L446.055 373.478V380.522L444.789 385.552L442.891 390.08L440.676 393.602L436.246 398.13L428.652 402.155L425.172 404.167L424.539 407.185L425.488 409.701L429.918 414.229L431.816 417.75L432.449 420.266V426.303L430.867 432.34L428.652 436.868L426.121 440.893L421.691 445.42L417.895 448.439L410.617 451.458L407.77 454.476L406.82 456.489L406.504 459.507L407.453 462.023L409.668 466.55L410.617 471.078L410.301 475.103L409.035 479.631L406.82 483.656L404.289 486.674L401.758 488.686L398.277 490.196L400.492 490.699L419.793 492.208L431.184 493.717L437.828 495.227L439.727 496.233V497.239L435.93 498.748L424.223 500.761L406.82 502.27L379.609 503.779L368.852 504.282L328.668 505.288H135.66L98.0078 504.282L73.0117 503.276L50.2305 501.767L34.7266 500.258L25.8672 498.748L23.0195 497.742L22.7031 496.233L23.6523 495.227L30.2969 493.717L42.6367 492.208L53.3945 491.202L55.6094 490.699L51.8125 485.165L47.6992 478.625L45.4844 474.6L42.3203 469.066L41.6875 466.55H41.0547L38.8398 461.519V460.513H38.207L35.6758 454.476L34.0938 450.451V448.942H33.4609L32.5117 445.924V444.414H31.8789L29.9805 438.377L29.3477 435.359L26.8164 429.825L25.5508 425.297L25.2344 422.781V418.757L26.8164 413.726L29.0312 410.204L31.8789 407.185L32.8281 405.173V402.155L32.5117 400.645L30.9297 399.639L25.8672 397.627L20.4883 395.614L16.0586 392.596L12.5781 388.571L10.0469 384.043L8.78125 378.509L9.09766 372.975L10.6797 367.944L13.2109 364.423L13.5273 363.416V360.398L11.9453 357.882L8.14844 353.858L4.35156 348.324L1.50391 341.783L0.238281 335.243V329.709L1.1875 324.678L3.08594 320.654L5.30078 317.635L9.09766 315.623H12.2617V309.586L13.5273 295.499L15.7422 280.406L17.6406 270.847L18.9062 265.816L20.4883 259.779L23.0195 251.73L25.8672 243.68L29.0312 235.631L35.6758 222.047H36.3086L36.9414 220.035L39.1562 216.01L44.2188 208.464L45.8008 206.452H46.4336V185.322L47.6992 171.235L49.9141 157.149L52.4453 146.08L55.6094 135.516L59.0898 126.46L61.9375 120.423L64.4688 115.392L68.2656 108.852L72.0625 103.318L76.8086 97.7836L81.5547 93.2558L86.9336 89.231L93.5781 85.7094L101.805 83.1939L104.969 82.6908H117.625L126.801 83.697L125.535 84.7032L121.422 85.2063L122.688 86.2125L126.484 88.2249L130.598 91.7465L134.711 97.7836L137.559 103.821L140.09 111.367L141.988 120.423L142.938 127.466L143.254 131.994V315.12H144.203L143.887 317.132L143.57 318.138L143.254 445.924L142.621 452.967L141.672 457.495L139.773 465.041L137.242 471.581L134.395 476.612L131.547 480.637L127.117 484.662L123.004 486.674H122.371V489.693L144.836 489.19L150.531 488.686L154.645 486.674L159.707 482.649L162.555 479.128L164.453 476.612L167.617 469.569L170.148 461.016L171.414 454.476L172.363 444.917L172.996 444.414H197.676L197.043 447.433L193.879 456.992L190.715 464.035L187.234 470.072L184.387 474.6L179.957 479.631L173.945 484.662L167.301 488.183L165.719 488.686L168.883 489.19H264.754L270.449 488.183L275.195 486.171L280.574 482.146L284.371 478.121L288.168 472.587L291.016 467.053L291.332 465.544H291.965L292.598 462.526L293.547 460.01L295.762 449.445L296.711 441.899L297.027 436.868L297.344 304.555L293.23 296.505L289.434 286.946L286.586 279.4L286.902 277.388L288.168 276.885V275.878L290.383 273.866L292.914 269.338L294.496 270.344L298.293 275.375L302.09 279.903V280.909L303.355 281.915L307.152 286.443L307.785 286.946V287.953L309.367 288.959L312.531 291.977L313.164 292.48H316.328L319.809 289.462L322.656 286.443L316.328 276.381L314.113 272.357L309.367 264.81L309.051 262.295L309.367 260.282L307.469 256.761L306.203 257.264L303.039 260.786L297.977 264.307L292.914 265.816H287.535L283.105 264.307L278.992 261.792L274.879 257.767V256.761L273.613 255.755L270.766 250.724L267.918 243.177L266.336 235.631L265.703 231.606V222.047L266.652 216.01L267.918 209.973L269.816 204.439H270.449V202.93L271.715 200.918L273.613 197.396L275.195 196.39V195.384L276.461 194.88V193.874L279.941 190.856L284.371 188.34L285.953 187.837H294.18L297.344 188.843L297.027 131.994L296.078 123.441L294.18 114.386L291.648 106.839L290.699 104.827V103.821H290.066L287.852 99.796L284.688 95.2681L280.891 91.2434L276.777 88.2249L272.664 86.2125L267.602 84.7032L165.086 84.2001L165.719 82.1877L166.668 80.6785L169.516 75.1444L172.996 69.1073L175.211 65.0826L179.957 58.0393L183.438 53.0084L187.867 47.4744L191.98 42.4434L195.777 38.4187L200.84 33.3878L204.004 30.3692L211.598 23.829L219.508 18.295L227.102 13.7672L235.961 9.23934L246.719 5.2146L255.262 2.69914L266.652 0.686768Z" fill="#CFE5CC"/>
</svg>
